<svg id="icon" width="96" height="96" viewBox="0 0 96 96" fill="none" xmlns="http://www.w3.org/2000/svg">
<g clip-path="url(#clip0_1316_188)">
<rect width="96" height="96" rx="20" fill="#141415"/>
<rect x="1" y="1" width="94" height="94" rx="19" stroke="url(#paint0_linear_1316_188)" stroke-opacity="0.25" stroke-width="2"/>
<path opacity="0.2" d="M51.3844 35.1344L41.3844 45.1344C41.2683 45.2506 41.1304 45.3428 40.9787 45.4057C40.8269 45.4686 40.6643 45.501 40.5 45.501C40.3357 45.501 40.1731 45.4686 40.0213 45.4057C39.8696 45.3428 39.7317 45.2506 39.6156 45.1344L37.1156 42.6344C36.9994 42.5183 36.9072 42.3804 36.8443 42.2287C36.7814 42.0769 36.749 41.9143 36.749 41.75C36.749 41.5857 36.7814 41.4231 36.8443 41.2713C36.9072 41.1196 36.9994 40.9817 37.1156 40.8656L47.1156 30.8656C47.2317 30.7494 47.3696 30.6572 47.5213 30.5943C47.6731 30.5314 47.8357 30.499 48 30.499C48.1643 30.499 48.3269 30.5314 48.4787 30.5943C48.6304 30.6572 48.7683 30.7494 48.8844 30.8656L51.3844 33.3656C51.5006 33.4817 51.5928 33.6196 51.6557 33.7713C51.7186 33.9231 51.751 34.0857 51.751 34.25C51.751 34.4143 51.7186 34.5769 51.6557 34.7287C51.5928 34.8804 51.5006 35.0183 51.3844 35.1344ZM65.1344 47.1156L62.6344 44.6156C62.5183 44.4994 62.3804 44.4072 62.2287 44.3443C62.0769 44.2814 61.9143 44.249 61.75 44.249C61.5857 44.249 61.4231 44.2814 61.2713 44.3443C61.1196 44.4072 60.9817 44.4994 60.8656 44.6156L50.8656 54.6156C50.7494 54.7317 50.6572 54.8696 50.5943 55.0213C50.5314 55.1731 50.499 55.3357 50.499 55.5C50.499 55.6643 50.5314 55.8269 50.5943 55.9787C50.6572 56.1304 50.7494 56.2683 50.8656 56.3844L53.3656 58.8844C53.4817 59.0006 53.6196 59.0928 53.7713 59.1557C53.9231 59.2186 54.0857 59.251 54.25 59.251C54.4143 59.251 54.5769 59.2186 54.7287 59.1557C54.8804 59.0928 55.0183 59.0006 55.1344 58.8844L65.1344 48.8844C65.2506 48.7683 65.3428 48.6304 65.4057 48.4787C65.4686 48.3269 65.501 48.1643 65.501 48C65.501 47.8357 65.4686 47.6731 65.4057 47.5213C65.3428 47.3696 65.2506 47.2317 65.1344 47.1156Z" fill="#C5A063"/>
<path d="M66.0191 46.2328L63.5191 43.7328C63.0951 43.3093 62.5331 43.0521 61.9354 43.0083C61.3377 42.9644 60.7442 43.1367 60.2629 43.4937L52.5066 35.7375C52.8639 35.2563 53.0364 34.6629 52.9928 34.0652C52.9492 33.4675 52.6924 32.9054 52.2691 32.4812L49.7691 29.9812C49.537 29.749 49.2613 29.5648 48.958 29.4391C48.6546 29.3135 48.3295 29.2488 48.0011 29.2488C47.6728 29.2488 47.3477 29.3135 47.0443 29.4391C46.741 29.5648 46.4653 29.749 46.2332 29.9812L36.2332 39.9812C36.001 40.2134 35.8168 40.489 35.6911 40.7923C35.5654 41.0957 35.5007 41.4208 35.5007 41.7492C35.5007 42.0775 35.5654 42.4027 35.6911 42.706C35.8168 43.0094 36.001 43.285 36.2332 43.5172L38.7332 46.0172C39.1573 46.44 39.7191 46.6966 40.3164 46.7402C40.9137 46.7838 41.5069 46.6115 41.9879 46.2547L43.1082 47.375L32.8925 57.5906C32.2139 58.3329 31.8476 59.3083 31.8701 60.3138C31.8926 61.3193 32.3021 62.2774 33.0133 62.9886C33.7244 63.6998 34.6825 64.1093 35.6881 64.1318C36.6936 64.1543 37.669 63.788 38.4113 63.1093L48.6254 52.8937L49.7457 54.0125C49.3884 54.4936 49.2159 55.087 49.2595 55.6847C49.3031 56.2824 49.5599 56.8445 49.9832 57.2687L52.4832 59.7687C52.7153 60.0009 52.991 60.1851 53.2943 60.3108C53.5977 60.4365 53.9228 60.5012 54.2511 60.5011C54.5795 60.5012 54.9046 60.4365 55.208 60.3108C55.5113 60.1851 55.787 60.0009 56.0191 59.7687L66.0191 49.7687C66.2513 49.5366 66.4355 49.2609 66.5612 48.9576C66.6869 48.6542 66.7515 48.3291 66.7515 48.0007C66.7515 47.6724 66.6869 47.3473 66.5612 47.0439C66.4355 46.7406 66.2513 46.4649 66.0191 46.2328ZM40.5004 44.25L38.0004 41.75L48.0004 31.75L50.5004 34.25L40.5004 44.25ZM36.6441 61.3406C36.3806 61.6025 36.0242 61.7495 35.6527 61.7495C35.2812 61.7495 34.9248 61.6025 34.6613 61.3406C34.3999 61.0772 34.2531 60.7211 34.2531 60.35C34.2531 59.9788 34.3999 59.6228 34.6613 59.3593L44.8754 49.1437L46.8582 51.125L36.6441 61.3406ZM43.7816 44.5093L50.7597 37.5312L58.4691 45.2406L51.4925 52.2187L43.7816 44.5093ZM54.2504 58L51.7504 55.5L52.3754 54.875L61.1254 46.125L61.7504 45.5L64.2504 48L54.2504 58Z" fill="#C5A063"/>
</g>
<defs>
<linearGradient id="paint0_linear_1316_188" x1="25.5" y1="-12.5" x2="71.5" y2="102.5" gradientUnits="userSpaceOnUse">
<stop stop-color="white" stop-opacity="0"/>
<stop offset="1" stop-color="white"/>
</linearGradient>
<clipPath id="clip0_1316_188">
<rect width="96" height="96" rx="20" fill="white"/>
</clipPath>
</defs>
</svg>
