<svg id="icon" width="96" height="96" viewBox="0 0 96 96" fill="none" xmlns="http://www.w3.org/2000/svg">
<g clip-path="url(#clip0_1316_178)">
<rect width="96" height="96" rx="20" fill="#141415"/>
<rect x="1" y="1" width="94" height="94" rx="19" stroke="url(#paint0_linear_1316_178)" stroke-opacity="0.25" stroke-width="2"/>
<path opacity="0.2" d="M61.75 35.5H34.25C33.9185 35.5 33.6005 35.6317 33.3661 35.8661C33.1317 36.1005 33 36.4185 33 36.75V58C33 58.3315 33.1317 58.6495 33.3661 58.8839C33.6005 59.1183 33.9185 59.25 34.25 59.25H61.75C62.0815 59.25 62.3995 59.1183 62.6339 58.8839C62.8683 58.6495 63 58.3315 63 58V36.75C63 36.4185 62.8683 36.1005 62.6339 35.8661C62.3995 35.6317 62.0815 35.5 61.75 35.5ZM51.75 54.25C50.5139 54.25 49.3055 53.8834 48.2777 53.1967C47.2499 52.5099 46.4488 51.5338 45.9758 50.3918C45.5027 49.2497 45.3789 47.9931 45.6201 46.7807C45.8612 45.5683 46.4565 44.4547 47.3306 43.5806C48.2047 42.7065 49.3183 42.1112 50.5307 41.8701C51.7431 41.6289 52.9997 41.7527 54.1418 42.2258C55.2838 42.6988 56.2599 43.4999 56.9467 44.5277C57.6334 45.5555 58 46.7639 58 48C58 48.8208 57.8383 49.6335 57.5242 50.3918C57.2102 51.1501 56.7498 51.8391 56.1694 52.4194C55.5891 52.9998 54.9001 53.4602 54.1418 53.7742C53.3835 54.0883 52.5708 54.25 51.75 54.25Z" fill="#C5A063"/>
<path d="M61.75 34.25H34.25C33.587 34.25 32.9511 34.5134 32.4822 34.9822C32.0134 35.4511 31.75 36.087 31.75 36.75V58C31.75 58.663 32.0134 59.2989 32.4822 59.7678C32.9511 60.2366 33.587 60.5 34.25 60.5H36.75V63C36.75 63.3315 36.8817 63.6495 37.1161 63.8839C37.3505 64.1183 37.6685 64.25 38 64.25C38.3315 64.25 38.6495 64.1183 38.8839 63.8839C39.1183 63.6495 39.25 63.3315 39.25 63V60.5H56.75V63C56.75 63.3315 56.8817 63.6495 57.1161 63.8839C57.3505 64.1183 57.6685 64.25 58 64.25C58.3315 64.25 58.6495 64.1183 58.8839 63.8839C59.1183 63.6495 59.25 63.3315 59.25 63V60.5H61.75C62.413 60.5 63.0489 60.2366 63.5178 59.7678C63.9866 59.2989 64.25 58.663 64.25 58V36.75C64.25 36.087 63.9866 35.4511 63.5178 34.9822C63.0489 34.5134 62.413 34.25 61.75 34.25ZM61.75 58H34.25V36.75H61.75V46.75H59.1438C58.8303 44.8958 57.8318 43.2269 56.3459 42.0742C54.8601 40.9215 52.9954 40.369 51.1215 40.5263C49.2475 40.6835 47.501 41.5391 46.2281 42.9233C44.9551 44.3075 44.2487 46.1194 44.2487 48C44.2487 49.8806 44.9551 51.6925 46.2281 53.0767C47.501 54.4609 49.2475 55.3165 51.1215 55.4737C52.9954 55.631 54.8601 55.0785 56.3459 53.9258C57.8318 52.7731 58.8303 51.1042 59.1438 49.25H61.75V58ZM53.9125 46.75C53.6373 46.2734 53.2126 45.9009 52.7041 45.6903C52.1957 45.4797 51.632 45.4427 51.1004 45.5852C50.5688 45.7276 50.0991 46.0415 49.7641 46.4781C49.429 46.9147 49.2474 47.4497 49.2474 48C49.2474 48.5503 49.429 49.0853 49.7641 49.5219C50.0991 49.9585 50.5688 50.2724 51.1004 50.4148C51.632 50.5573 52.1957 50.5203 52.7041 50.3097C53.2126 50.0991 53.6373 49.7266 53.9125 49.25H56.5938C56.2895 50.4283 55.566 51.4552 54.5587 52.1383C53.5515 52.8213 52.3298 53.1135 51.1225 52.9601C49.9152 52.8068 48.8053 52.2184 48.0008 51.3053C47.1964 50.3922 46.7525 49.217 46.7525 48C46.7525 46.783 47.1964 45.6078 48.0008 44.6947C48.8053 43.7816 49.9152 43.1932 51.1225 43.0399C52.3298 42.8865 53.5515 43.1787 54.5587 43.8617C55.566 44.5448 56.2895 45.5717 56.5938 46.75H53.9125Z" fill="#C5A063"/>
</g>
<defs>
<linearGradient id="paint0_linear_1316_178" x1="25.5" y1="-12.5" x2="71.5" y2="102.5" gradientUnits="userSpaceOnUse">
<stop stop-color="white" stop-opacity="0"/>
<stop offset="1" stop-color="white"/>
</linearGradient>
<clipPath id="clip0_1316_178">
<rect width="96" height="96" rx="20" fill="white"/>
</clipPath>
</defs>
</svg>
