<svg id="icon" width="96" height="96" viewBox="0 0 96 96" fill="none" xmlns="http://www.w3.org/2000/svg">
<g clip-path="url(#clip0_1316_353)">
<rect width="96" height="96" rx="20" fill="#141415"/>
<rect x="1" y="1" width="94" height="94" rx="19" stroke="url(#paint0_linear_1316_353)" stroke-opacity="0.25" stroke-width="2"/>
<path fill-rule="evenodd" clip-rule="evenodd" d="M50.7323 35.9936C54.5326 36.4027 57.5125 37.6697 57.8427 41.4442C58.0668 44.1959 57.0033 45.8333 55.2449 46.7561C58.0838 47.529 59.8105 49.3464 59.4535 53.3782C59.0188 58.4316 55.5534 59.7444 50.599 60.0216L50.6065 65.2388L47.6887 65.243L47.6811 60.0258C47.3623 60.0208 47.0289 60.026 46.6869 60.0313H46.6869H46.6868C46.2299 60.0385 45.7577 60.0459 45.2845 60.0293L45.2921 65.2465L42.3795 65.2508L42.372 60.0336L36.5368 59.9081L37.0287 56.0952C37.0287 56.0952 39.2326 56.148 39.1917 56.1204C40.0031 56.1156 40.2439 55.4881 40.3039 55.076L40.2898 46.7126L40.313 40.7601C40.2234 40.1397 39.8364 39.3953 38.6436 39.3727C38.7086 39.3092 36.5072 39.3759 36.5072 39.3759L36.5 35.8804L42.4796 35.8717L42.4723 30.7613L45.4847 30.7569L45.4921 35.8673C46.0736 35.8497 46.6473 35.8546 47.2274 35.8597H47.2274L47.2275 35.8597C47.4179 35.8614 47.6089 35.863 47.8012 35.8639L47.7938 30.7535L50.7248 30.7493L50.7323 35.9936ZM45.1328 45.6098L45.2808 45.6167C47.0542 45.7011 52.3124 45.9512 52.3205 42.4732C52.3124 39.1711 47.8373 39.2777 45.758 39.3272H45.758C45.5124 39.333 45.3003 39.3381 45.1328 39.3366V45.6098ZM45.382 55.8541C45.2888 55.8499 45.203 55.8461 45.1253 55.8429L45.1253 49.5697C45.3105 49.5716 45.5435 49.5684 45.8129 49.5648C48.2702 49.5314 53.7589 49.4568 53.7329 52.7857C53.7606 56.2289 47.5652 55.9518 45.382 55.8541Z" fill="#453E31"/>
<path d="M57.8427 41.4442L58.5903 41.3833L58.5899 41.3789L57.8427 41.4442ZM50.7323 35.9936L49.9823 35.9947L49.9833 36.6673L50.652 36.7393L50.7323 35.9936ZM55.2449 46.7561L54.8963 46.092L53.2069 46.9786L55.0478 47.4798L55.2449 46.7561ZM59.4535 53.3782L58.7064 53.312L58.7062 53.3139L59.4535 53.3782ZM50.599 60.0216L50.5571 59.2727L49.848 59.3124L49.849 60.0226L50.599 60.0216ZM50.6065 65.2388L50.6076 65.9888L51.3576 65.9877L51.3565 65.2377L50.6065 65.2388ZM47.6887 65.243L46.9387 65.2441L46.9397 65.9941L47.6898 65.993L47.6887 65.243ZM47.6811 60.0258L48.4311 60.0247L48.4301 59.2876L47.6931 59.2759L47.6811 60.0258ZM46.6869 60.0313V60.7814L46.6987 60.7813L46.6869 60.0313ZM46.6868 60.0313V59.2813L46.6751 59.2814L46.6868 60.0313ZM45.2845 60.0293L45.3108 59.2798L44.5334 59.2525L44.5345 60.0304L45.2845 60.0293ZM45.2921 65.2465L45.2931 65.9965L46.0431 65.9954L46.0421 65.2454L45.2921 65.2465ZM42.3795 65.2508L41.6295 65.2519L41.6306 66.0019L42.3806 66.0008L42.3795 65.2508ZM42.372 60.0336L43.122 60.0325L43.121 59.2995L42.3881 59.2837L42.372 60.0336ZM36.5368 59.9081L35.793 59.8121L35.6862 60.64L36.5207 60.6579L36.5368 59.9081ZM37.0287 56.0952L37.0467 55.3454L36.3713 55.3292L36.2849 55.9992L37.0287 56.0952ZM39.1917 56.1204L39.1873 55.3704L36.7608 55.3847L38.7722 56.7421L39.1917 56.1204ZM40.3039 55.076L41.0461 55.184L41.054 55.1296L41.0539 55.0747L40.3039 55.076ZM40.2898 46.7126L39.5398 46.7097L39.5398 46.7139L40.2898 46.7126ZM40.313 40.7601L41.063 40.7631L41.0632 40.7077L41.0553 40.653L40.313 40.7601ZM38.6436 39.3727L38.1191 38.8366L36.839 40.0888L38.6294 40.1226L38.6436 39.3727ZM36.5072 39.3759L35.7572 39.3774L35.7588 40.1489L36.5299 40.1255L36.5072 39.3759ZM36.5 35.8804L36.4989 35.1304L35.7485 35.1315L35.75 35.8819L36.5 35.8804ZM42.4796 35.8717L42.4807 36.6216L43.2307 36.6206L43.2296 35.8706L42.4796 35.8717ZM42.4723 30.7613L42.4712 30.0113L41.7212 30.0124L41.7223 30.7624L42.4723 30.7613ZM45.4847 30.7569L46.2347 30.7558L46.2336 30.0058L45.4836 30.0069L45.4847 30.7569ZM45.4921 35.8673L44.7421 35.8683L44.7432 36.6403L45.5148 36.6169L45.4921 35.8673ZM47.2274 35.8597L47.2209 36.6097H47.2274V35.8597ZM47.2274 35.8597L47.2373 35.1097H47.2274V35.8597ZM47.2275 35.8597L47.2177 36.6096L47.221 36.6097L47.2275 35.8597ZM47.8012 35.8639L47.7978 36.6139L48.5523 36.6173L48.5512 35.8628L47.8012 35.8639ZM47.7938 30.7535L47.7927 30.0035L47.0427 30.0046L47.0438 30.7546L47.7938 30.7535ZM50.7248 30.7493L51.4748 30.7482L51.4738 29.9982L50.7238 29.9993L50.7248 30.7493ZM45.2808 45.6167L45.3164 44.8676L45.3159 44.8675L45.2808 45.6167ZM45.1328 45.6098H44.3828V46.3254L45.0976 46.3589L45.1328 45.6098ZM52.3205 42.4732L53.0705 42.4749L53.0705 42.4714L52.3205 42.4732ZM45.758 39.3272V40.0772H45.7669L45.7759 40.077L45.758 39.3272ZM45.758 39.3272V38.5772H45.749L45.7401 38.5774L45.758 39.3272ZM45.1328 39.3366L45.1393 38.5866L44.3828 38.5801V39.3366H45.1328ZM45.1253 55.8429H44.3753L44.3753 56.5626L45.0943 56.5922L45.1253 55.8429ZM45.382 55.8541L45.3485 56.6033H45.3485L45.382 55.8541ZM45.1253 49.5697L45.1328 48.8198L44.3753 48.8121L44.3753 49.5697H45.1253ZM45.8129 49.5648L45.8027 48.8148H45.8027L45.8129 49.5648ZM53.7329 52.7857L52.9828 52.7798L52.9829 52.7917L53.7329 52.7857ZM58.5899 41.3789C58.4053 39.2695 57.4594 37.8012 56.0044 36.8326C54.5929 35.8928 52.754 35.4569 50.8126 35.2479L50.652 36.7393C52.5108 36.9394 54.0621 37.3415 55.1732 38.0812C56.2407 38.7919 56.9499 39.8444 57.0956 41.5096L58.5899 41.3789ZM55.5934 47.4202C56.583 46.9008 57.4107 46.1607 57.9508 45.1356C58.4892 44.1138 58.7111 42.8672 58.5902 41.3833L57.0952 41.5051C57.1984 42.7729 57.0007 43.7209 56.6237 44.4364C56.2485 45.1486 55.6652 45.6885 54.8963 46.092L55.5934 47.4202ZM60.2006 53.4444C60.3889 51.3172 60.0371 49.6592 59.1611 48.4136C58.2851 47.168 56.9634 46.4467 55.4419 46.0324L55.0478 47.4798C56.3652 47.8384 57.3264 48.4122 57.9342 49.2765C58.542 50.1408 58.8751 51.4074 58.7064 53.312L60.2006 53.4444ZM50.6409 60.7704C53.147 60.6302 55.4171 60.2259 57.128 59.121C58.8957 57.9795 59.9671 56.1583 60.2007 53.4425L58.7062 53.3139C58.5052 55.6515 57.6266 57.0134 56.3143 57.8609C54.9452 58.7451 53.0054 59.1357 50.5571 59.2727L50.6409 60.7704ZM51.3565 65.2377L51.349 60.0205L49.849 60.0226L49.8565 65.2399L51.3565 65.2377ZM47.6898 65.993L50.6076 65.9888L50.6054 64.4888L47.6876 64.493L47.6898 65.993ZM46.9311 60.0269L46.9387 65.2441L48.4387 65.242L48.4311 60.0247L46.9311 60.0269ZM46.6987 60.7813C47.0431 60.7759 47.3643 60.7709 47.6692 60.7757L47.6931 59.2759C47.3602 59.2706 47.0147 59.2761 46.6752 59.2814L46.6987 60.7813ZM46.6869 60.7813H46.6869V59.2813H46.6869V60.7813ZM46.6868 60.7813H46.6869V59.2813H46.6868V60.7813ZM45.2582 60.7789C45.7536 60.7962 46.2446 60.7884 46.6986 60.7813L46.6751 59.2814C46.2151 59.2887 45.7619 59.2956 45.3108 59.2798L45.2582 60.7789ZM46.0421 65.2454L46.0345 60.0282L44.5345 60.0304L44.5421 65.2476L46.0421 65.2454ZM42.3806 66.0008L45.2931 65.9965L45.291 64.4965L42.3784 64.5008L42.3806 66.0008ZM41.622 60.0346L41.6295 65.2519L43.1295 65.2497L43.122 60.0325L41.622 60.0346ZM36.5207 60.6579L42.3559 60.7834L42.3881 59.2837L36.5529 59.1583L36.5207 60.6579ZM36.2849 55.9992L35.793 59.8121L37.2806 60.0041L37.7726 56.1912L36.2849 55.9992ZM38.7722 56.7421C38.7301 56.7137 38.5273 56.5755 38.4614 56.2893C38.3761 55.9188 38.5831 55.6596 38.6934 55.5614C38.7934 55.4724 38.8921 55.4337 38.921 55.4225C38.9629 55.4064 38.9973 55.3975 39.0151 55.3932C39.0513 55.3846 39.0795 55.3809 39.0885 55.3798C39.1008 55.3782 39.1098 55.3774 39.1135 55.3771C39.1234 55.3763 39.1209 55.3769 39.0946 55.3774C39.0487 55.3784 38.9743 55.3787 38.875 55.3781C38.679 55.3771 38.4113 55.3731 38.139 55.3683C37.8674 55.3634 37.5943 55.3577 37.3889 55.3532C37.2863 55.3509 37.2006 55.349 37.1407 55.3476C37.1107 55.3469 37.0872 55.3464 37.0711 55.346C37.0631 55.3458 37.057 55.3457 37.0529 55.3456C37.0508 55.3455 37.0493 55.3455 37.0482 55.3455C37.0477 55.3454 37.0473 55.3454 37.0471 55.3454C37.0469 55.3454 37.0469 55.3454 37.0468 55.3454C37.0468 55.3454 37.0467 55.3454 37.0467 55.3454C37.0467 55.3454 37.0467 55.3454 37.0287 56.0952C37.0108 56.845 37.0108 56.845 37.0108 56.845C37.0108 56.845 37.0109 56.845 37.0109 56.845C37.011 56.845 37.0111 56.845 37.0112 56.845C37.0115 56.845 37.0119 56.845 37.0124 56.845C37.0135 56.8451 37.0151 56.8451 37.0172 56.8451C37.0215 56.8452 37.0277 56.8454 37.0358 56.8456C37.0521 56.846 37.0758 56.8465 37.106 56.8472C37.1665 56.8486 37.2527 56.8506 37.356 56.8528C37.5625 56.8574 37.8378 56.8631 38.1122 56.868C38.3857 56.8729 38.6612 56.877 38.867 56.8781C38.9686 56.8786 39.0596 56.8785 39.1264 56.8771C39.1565 56.8765 39.1971 56.8753 39.2349 56.8722C39.2427 56.8716 39.2988 56.8677 39.3631 56.8523C39.3825 56.8477 39.4181 56.8385 39.4609 56.822C39.4908 56.8104 39.5902 56.7713 39.6906 56.6819C39.8014 56.5833 40.0085 56.3237 39.9232 55.9528C39.8572 55.6662 39.654 55.5276 39.6113 55.4987L38.7722 56.7421ZM39.5617 54.9679C39.5422 55.1023 39.4988 55.2146 39.4465 55.2792C39.4249 55.3059 39.4027 55.3236 39.3752 55.3368C39.3477 55.35 39.2914 55.3698 39.1873 55.3704L39.1961 56.8704C39.8252 56.8667 40.3012 56.6076 40.6126 56.2227C40.8986 55.8693 41.0056 55.4617 41.0461 55.184L39.5617 54.9679ZM39.5398 46.7139L39.5539 55.0772L41.0539 55.0747L41.0398 46.7113L39.5398 46.7139ZM39.563 40.7572L39.5398 46.7097L41.0398 46.7155L41.063 40.7631L39.563 40.7572ZM38.6294 40.1226C39.0592 40.1307 39.2538 40.2609 39.3522 40.3629C39.4663 40.4812 39.5402 40.6566 39.5707 40.8673L41.0553 40.653C40.9961 40.2433 40.8318 39.7362 40.4318 39.3215C40.0161 38.8905 39.4208 38.6373 38.6578 38.6229L38.6294 40.1226ZM36.5072 39.3759C36.5299 40.1255 36.5299 40.1255 36.5299 40.1255C36.5299 40.1255 36.53 40.1255 36.53 40.1255C36.53 40.1255 36.5301 40.1255 36.5302 40.1255C36.5305 40.1255 36.5309 40.1255 36.5314 40.1255C36.5324 40.1254 36.5339 40.1254 36.5359 40.1253C36.5399 40.1252 36.546 40.125 36.5539 40.1248C36.5698 40.1243 36.5931 40.1237 36.6229 40.1228C36.6824 40.1211 36.7675 40.1188 36.8694 40.1162C37.0734 40.111 37.344 40.1047 37.6118 40.1004C37.8816 40.096 38.1414 40.0938 38.327 40.0963C38.4232 40.0977 38.4833 40.1001 38.5115 40.1023C38.5353 40.1042 38.5049 40.1035 38.4558 40.0917C38.4403 40.088 38.4108 40.0804 38.3743 40.0666C38.3453 40.0558 38.269 40.0255 38.186 39.9617C38.111 39.904 37.9217 39.733 37.8974 39.4297C37.8723 39.1165 38.0417 38.9123 38.1191 38.8366L39.168 39.9089C39.2475 39.8312 39.4178 39.6251 39.3926 39.31C39.3682 39.0048 39.1777 38.8321 39.1004 38.7726C38.9591 38.664 38.8119 38.6346 38.8048 38.6329C38.7306 38.6151 38.6596 38.6093 38.6295 38.607C38.5497 38.6007 38.4485 38.5979 38.3474 38.5965C38.1385 38.5936 37.8602 38.5962 37.5877 38.6006C37.3134 38.605 37.0376 38.6114 36.831 38.6167C36.7275 38.6193 36.6411 38.6217 36.5805 38.6234C36.5502 38.6243 36.5263 38.625 36.5099 38.6254C36.5017 38.6257 36.4955 38.6259 36.4912 38.626C36.489 38.6261 36.4874 38.6261 36.4863 38.6261C36.4857 38.6262 36.4853 38.6262 36.485 38.6262C36.4849 38.6262 36.4847 38.6262 36.4847 38.6262C36.4846 38.6262 36.4846 38.6262 36.4846 38.6262C36.4845 38.6262 36.4845 38.6262 36.5072 39.3759ZM35.75 35.8819L35.7572 39.3774L37.2572 39.3743L37.25 35.8788L35.75 35.8819ZM42.4785 35.1217L36.4989 35.1304L36.5011 36.6304L42.4807 36.6216L42.4785 35.1217ZM41.7223 30.7624L41.7296 35.8727L43.2296 35.8706L43.2223 30.7602L41.7223 30.7624ZM45.4836 30.0069L42.4712 30.0113L42.4733 31.5113L45.4858 31.5069L45.4836 30.0069ZM46.2421 35.8662L46.2347 30.7558L44.7347 30.758L44.7421 35.8683L46.2421 35.8662ZM47.2339 35.1097C46.6561 35.1047 46.0679 35.0995 45.4694 35.1176L45.5148 36.6169C46.0793 36.5998 46.6384 36.6046 47.2209 36.6097L47.2339 35.1097ZM47.2274 35.1097H47.2274V36.6097H47.2274V35.1097ZM47.2374 35.1098L47.2373 35.1098L47.2176 36.6096L47.2177 36.6096L47.2374 35.1098ZM47.8046 35.1139C47.6142 35.113 47.4247 35.1114 47.2341 35.1097L47.221 36.6097C47.4111 36.6113 47.6037 36.613 47.7978 36.6139L47.8046 35.1139ZM47.0438 30.7546L47.0512 35.865L48.5512 35.8628L48.5438 30.7525L47.0438 30.7546ZM50.7238 29.9993L47.7927 30.0035L47.7949 31.5035L50.7259 31.4993L50.7238 29.9993ZM51.4823 35.9926L51.4748 30.7482L49.9748 30.7503L49.9823 35.9947L51.4823 35.9926ZM45.3159 44.8675L45.168 44.8606L45.0976 46.3589L45.2456 46.3659L45.3159 44.8675ZM51.5705 42.4715C51.569 43.1238 51.3331 43.5583 50.968 43.8832C50.5766 44.2315 49.9984 44.4843 49.2909 44.6508C47.8712 44.9848 46.2158 44.9103 45.3164 44.8676L45.2451 46.3659C46.1191 46.4074 47.9796 46.5002 49.6344 46.1109C50.4641 45.9157 51.3129 45.5842 51.9651 45.0038C52.6436 44.4001 53.068 43.5616 53.0705 42.4749L51.5705 42.4715ZM45.7759 40.077C46.8355 40.0517 48.3616 40.0208 49.6168 40.3664C50.2378 40.5374 50.7263 40.7841 51.0535 41.1117C51.3608 41.4193 51.569 41.8393 51.5705 42.475L53.0705 42.4714C53.068 41.4561 52.7137 40.6511 52.1147 40.0515C51.5356 39.4719 50.7739 39.1292 50.0151 38.9203C48.5109 38.506 46.7598 38.5531 45.7402 38.5774L45.7759 40.077ZM45.758 40.0772H45.758V38.5772H45.758V40.0772ZM45.1263 40.0866C45.3087 40.0882 45.5348 40.0827 45.7758 40.077L45.7401 38.5774C45.49 38.5833 45.2918 38.588 45.1393 38.5866L45.1263 40.0866ZM45.8828 45.6098V39.3366H44.3828V45.6098H45.8828ZM45.0943 56.5922C45.1705 56.5954 45.255 56.5992 45.3485 56.6033L45.4155 55.1048C45.3227 55.1007 45.2355 55.0968 45.1562 55.0935L45.0943 56.5922ZM44.3753 49.5697L44.3753 55.8429H45.8753L45.8753 49.5697H44.3753ZM45.8027 48.8148C45.53 48.8185 45.3072 48.8215 45.1328 48.8198L45.1177 50.3197C45.3138 50.3217 45.5569 50.3183 45.8231 50.3147L45.8027 48.8148ZM54.4829 52.7915C54.4913 51.7179 54.0407 50.8914 53.3338 50.2987C52.6562 49.7305 51.7663 49.3932 50.8755 49.1842C49.0947 48.7664 47.0149 48.7984 45.8027 48.8148L45.8231 50.3147C47.0682 50.2978 48.9614 50.2758 50.5328 50.6446C51.3181 50.8288 51.949 51.095 52.37 51.4481C52.7617 51.7765 52.9875 52.189 52.9829 52.7798L54.4829 52.7915ZM45.3485 56.6033C46.4281 56.6517 48.6095 56.7524 50.5279 56.3843C51.4845 56.2007 52.453 55.8874 53.1958 55.3322C53.972 54.752 54.4919 53.9097 54.4829 52.7797L52.9829 52.7917C52.9877 53.3833 52.7435 53.7975 52.2977 54.1307C51.8184 54.489 51.1068 54.7458 50.2452 54.9112C48.527 55.2409 46.5191 55.1542 45.4155 55.1048L45.3485 56.6033Z" fill="#C5A063"/>
</g>
<defs>
<linearGradient id="paint0_linear_1316_353" x1="25.5" y1="-12.5" x2="71.5" y2="102.5" gradientUnits="userSpaceOnUse">
<stop stop-color="white" stop-opacity="0"/>
<stop offset="1" stop-color="white"/>
</linearGradient>
<clipPath id="clip0_1316_353">
<rect width="96" height="96" rx="20" fill="white"/>
</clipPath>
</defs>
</svg>
