<svg width="109" height="80" viewBox="0 0 109 80" fill="none" xmlns="http://www.w3.org/2000/svg">
<path d="M21.9359 20.4373C26.7359 12.6933 33.3066 7.12528 41.8826 4.07461C50.4373 1.00261 59.0559 1.04528 67.6533 4.05328C73.8826 6.22928 81.9893 11.1573 87.5999 20.4373C87.6852 20.3093 87.7706 20.2239 87.8346 20.0959C88.8586 18.5599 89.8613 17.0453 90.8852 15.5093C91.7812 14.1653 92.8266 12.9493 94.1706 12.0319C95.8773 10.8586 97.7759 10.2186 99.8026 10.0053C100.997 9.87728 102.192 9.85594 103.387 10.1119C105.029 10.4533 106.352 11.3066 107.397 12.6079C107.717 13.0133 107.781 13.4613 107.547 13.9306C107.312 14.3786 106.928 14.6346 106.416 14.5919C105.648 14.5279 104.901 14.4426 104.133 14.3573C101.403 14.0799 99.0133 14.7626 97.1573 16.9173C96.6879 17.4719 96.3252 18.1333 96.0266 18.7946C95.0666 20.8853 94.1066 22.9759 93.1039 25.0453C92.6133 26.0693 91.9733 26.9866 91.2266 27.8399C91.0986 27.9893 91.0772 28.0959 91.1199 28.2879C92.5492 32.6399 93.1679 37.0986 92.9333 41.6639C92.3786 52.4799 88.0479 61.5253 79.9839 68.7359C75.0773 73.1306 69.3386 75.9679 62.9173 77.3973C59.4613 78.1653 55.9626 78.4213 52.4426 78.1866C44.0373 77.6533 36.5919 74.688 30.1706 69.2693C23.6213 63.7439 19.3973 56.7893 17.4986 48.4266C16.6879 44.8853 16.4319 41.2799 16.6453 37.6533C16.8373 34.4746 17.4133 31.3813 18.3946 28.3519C18.4799 28.0959 18.4373 27.9466 18.2666 27.7333C17.2426 26.4959 16.4746 25.0879 15.7493 23.6586C15.0026 22.1653 14.3413 20.6079 13.5946 19.1146C13.1893 18.3039 12.7199 17.5359 12.1866 16.8106C11.1626 15.4239 9.71193 14.6986 8.02659 14.4853C6.57593 14.2933 5.12526 14.3573 3.69593 14.5066C3.46126 14.5279 3.20526 14.5706 2.94926 14.5493C2.47993 14.5066 2.15993 14.2506 1.98926 13.8239C1.81859 13.3759 1.86126 12.9493 2.18126 12.6079C3.39726 11.2426 4.89059 10.2613 6.72526 10.0693C11.4826 9.57861 15.4719 11.0506 18.3306 15.0399C19.5253 16.7253 20.6133 18.4746 21.7653 20.1813C21.8079 20.2453 21.8719 20.3306 21.9359 20.4373ZM19.0133 28.5866C14.6613 41.7493 17.8399 59.5199 32.7093 70.3999C47.1093 80.9173 66.8639 79.8293 80.0906 67.7759C93.3173 55.7013 94.1279 38.9973 90.5439 28.5866C90.1813 28.9066 89.8399 29.2266 89.4559 29.5253C89.3066 29.6319 89.2853 29.7386 89.3279 29.9093C90.1386 32.6613 90.6079 35.4986 90.7359 38.3573C90.9066 42.0266 90.5226 45.6533 89.5839 49.2373C85.5733 64.3413 72.2613 75.1786 56.6879 75.9893C53.4239 76.16 50.1599 75.9253 46.9813 75.1786C36.1653 72.6186 28.1226 66.4319 22.8533 56.6613C20.3786 52.0533 19.0986 47.1039 18.8213 41.8773C18.6719 38.9759 18.8639 36.0746 19.4186 33.2159C19.6319 32.1066 19.9306 31.0399 20.2079 29.9306C20.2293 29.8239 20.2933 29.7173 20.1653 29.6106C19.7813 29.2906 19.3973 28.9493 19.0133 28.5866ZM23.4079 22.2933C27.8879 14.6773 34.1386 9.23728 42.3946 6.22928C50.6293 3.22128 58.9493 3.22128 67.1839 6.22928C75.4399 9.23728 81.6906 14.6986 86.1493 22.2719C86.4479 21.9093 86.7466 21.5679 87.0452 21.2266C87.1732 21.0773 87.1732 20.9493 87.0666 20.7786C80.6879 10.1333 69.3386 3.07194 56.5813 2.49594C52.4853 2.30394 48.4746 2.75194 44.5279 3.88261C37.3386 5.95194 31.3013 9.81328 26.3946 15.4453C24.9226 17.1306 23.6213 18.9439 22.4906 20.8853C22.4479 20.9493 22.4266 21.0986 22.4693 21.1413C22.7466 21.5253 23.0666 21.8879 23.4079 22.2933ZM76.0586 33.1306C77.0186 33.0453 78.0213 32.9599 79.0026 32.8746C80.6453 32.7466 82.2879 32.5546 83.8879 32.1066C88.1119 30.9119 91.2266 28.4159 93.1466 24.4479C94.0853 22.5066 94.9813 20.5226 95.8773 18.5599C96.2613 17.7279 96.7306 16.9386 97.3919 16.2986C99.2906 14.3999 101.595 13.8239 104.197 14.1013C104.944 14.1866 105.691 14.2719 106.437 14.3359C106.864 14.3786 107.184 14.1653 107.376 13.7813C107.568 13.3973 107.504 13.0346 107.248 12.7146C106.224 11.4559 104.944 10.6453 103.344 10.3039C101.936 10.0053 100.549 10.0693 99.1413 10.3039C96.0266 10.7946 93.4666 12.2453 91.6319 14.8479C90.3946 16.5973 89.2426 18.3893 88.0479 20.1386C87.4719 20.9919 86.8746 21.8239 86.1279 22.5706C84.5919 24.0639 82.7999 24.9386 80.6239 25.0239C79.7066 25.0666 78.7893 25.0879 77.8932 25.1306C73.9466 25.2586 69.9999 25.2586 66.0533 25.1093C64.9653 25.0666 63.8986 24.8533 62.8746 24.5333C61.7439 24.1706 60.6986 23.6373 59.6533 23.1253C58.2239 22.4213 56.7093 21.9306 55.1093 21.8666C53.3813 21.8026 51.7386 22.2506 50.2026 23.0186C49.2853 23.4879 48.3893 23.9786 47.4506 24.4479C46.9173 24.7253 46.3199 24.8959 45.7226 24.9386C44.4639 25.0239 43.1839 25.0879 41.9039 25.1306C37.9999 25.3013 34.0746 25.4079 30.1493 25.3013C29.1893 25.2799 28.2719 25.1306 27.3546 24.8533C24.9226 24.1279 23.0879 22.6133 21.7013 20.5013C20.5279 18.7093 19.3759 16.8746 18.1386 15.1253C15.3653 11.2213 11.4613 9.79194 6.81059 10.2399C5.01859 10.4106 3.56793 11.3706 2.35193 12.6933C2.05326 13.0133 2.01059 13.3973 2.20259 13.7813C2.39459 14.1653 2.71459 14.3573 3.16259 14.3359C3.33326 14.3359 3.48259 14.3146 3.65326 14.2933C5.12526 14.1439 6.59726 14.0586 8.06926 14.2719C9.79726 14.5066 11.2693 15.2746 12.3573 16.6399C13.0399 17.5146 13.5946 18.4533 14.0213 19.4773C14.9386 21.5893 15.9413 23.6373 17.0933 25.6213C19.2053 29.2693 22.3199 31.5306 26.4799 32.2773C28.3146 32.5973 30.1706 32.7253 32.0053 32.9386C32.5386 33.0026 33.0933 33.0453 33.6266 33.1093C33.5626 33.1946 33.4773 33.2159 33.3919 33.2586C32.8373 33.5146 32.3253 33.8346 31.9413 34.3253C31.5359 34.8586 31.4719 35.4346 31.8133 36.0319C32.1546 36.6719 32.6666 37.1199 33.3493 37.3546C34.4373 37.7173 35.5466 37.9946 36.6986 37.9733C38.0639 37.9306 39.4293 37.8026 40.8159 37.6959C41.2639 37.6533 41.7119 37.6106 42.1599 37.5466C42.1599 37.7173 42.1599 37.8453 42.1599 37.9519C42.1173 38.6346 42.2239 39.2959 42.4373 39.9359C42.6293 40.4906 42.7999 41.0453 42.9706 41.6213C43.5893 43.5199 44.2079 45.4186 45.1253 47.1893C45.6373 48.1919 46.2133 49.1519 46.6826 50.1546C47.7279 52.3946 48.1333 54.7413 47.6426 57.1946C47.4506 58.1759 47.5573 59.1146 48.0479 59.9893C48.7306 61.1839 49.8186 61.8239 51.1199 62.0586C51.9733 62.2079 52.8693 62.2506 53.7439 62.2933C55.1946 62.3786 56.6666 62.4213 58.0959 62.1226C59.4186 61.8453 60.5066 61.2479 61.2533 60.0533C61.9359 58.9653 61.9573 57.792 61.8293 56.5759C61.7439 55.8933 61.5733 55.1893 61.7013 54.4853C61.7653 54.1013 61.8079 53.7173 61.8506 53.3546C62.0213 52.2026 62.3199 51.0933 62.8533 50.0479C63.6213 48.5333 64.3253 47.0186 64.9866 45.4613C65.9466 43.2639 66.6719 40.9813 67.0986 38.6133C67.1626 38.2719 67.2053 37.9093 67.2693 37.5466C67.3759 37.5466 67.4826 37.5466 67.5679 37.5466C70.1066 37.5253 72.6452 37.5039 75.2053 37.5039C75.8239 37.5039 76.3573 37.2906 76.8053 36.8639C77.1466 36.5439 77.4879 36.2239 77.8079 35.8826C78.2133 35.4559 78.1706 34.8159 77.7013 34.4319C77.1893 33.9839 76.6133 33.5786 76.0586 33.1306ZM29.3599 32.8746C28.9546 34.0906 28.5706 36.3093 28.4426 38.1653C28.2079 41.4719 28.5706 44.7146 29.5519 47.8719C32.7946 58.2399 41.9893 65.5573 52.8053 66.368C55.6639 66.5813 58.4799 66.3466 61.2533 65.6213C67.9519 63.8719 73.2213 60.0746 76.9973 54.2719C79.3653 50.6666 80.6879 46.6773 81.0719 42.3679C81.2852 40.1279 81.1999 37.8879 80.8159 35.6693C80.6666 34.8373 80.4746 34.0266 80.2826 33.1946C80.2613 33.1093 80.1759 33.0026 80.1119 33.0026C79.9413 32.9813 79.7706 33.0239 79.6213 33.0453C81.6479 41.2373 80.4106 48.8319 75.2693 55.5519C70.1493 62.2719 63.2159 65.7066 54.7466 65.7279C47.3226 65.7493 40.9653 62.9973 35.9519 57.5359C29.4879 50.4746 27.7173 42.1759 29.9573 32.9173C29.7866 32.9173 29.5733 32.8959 29.3599 32.8746ZM76.4212 24.9386C72.0053 18.3253 62.6826 12.2666 51.0346 13.8879C47.3866 14.3999 43.9946 15.6373 40.8799 17.5786C37.7439 19.5199 35.1413 22.0159 33.0079 25.0879C33.2213 25.0879 33.3493 25.0666 33.4559 25.0879C33.7119 25.1306 33.8613 25.0239 34.0106 24.8106C34.3093 24.3839 34.6293 23.9786 34.9493 23.5946C39.7066 18.0053 45.7226 14.8906 53.0613 14.3359C55.8346 14.1226 58.5866 14.3786 61.2746 15.1039C67.0133 16.6399 71.6853 19.7546 75.2906 24.4693C75.5893 24.8533 75.8879 25.0239 76.3359 24.9386C76.3573 24.9386 76.3786 24.9386 76.4212 24.9386ZM69.7866 68.6933C69.6799 68.5866 69.6159 68.5439 69.5519 68.4799C68.8266 67.7973 68.1226 67.0933 67.3973 66.4106C67.2053 66.2399 67.0346 65.9413 66.8426 65.9199C66.6293 65.8986 66.3733 66.1333 66.1386 66.2399C65.9466 66.3253 65.9253 66.4319 65.9893 66.6239C66.3733 67.8186 66.7573 69.0133 67.1626 70.2293C67.3333 70.7413 67.5039 71.2533 67.6746 71.8079C67.9306 71.6799 68.1439 71.5519 68.3786 71.4453C68.5492 71.3599 68.6133 71.2746 68.5279 71.0826C68.2293 70.1866 67.9519 69.2906 67.6533 68.3946C67.6106 68.2666 67.5679 68.1386 67.5466 68.0319C68.2719 68.6719 68.9546 69.3333 69.6373 69.9946C70.2133 70.5493 70.2133 70.5493 70.8959 70.1439C70.9599 70.1013 71.0026 69.9946 71.0026 69.9306C70.8959 69.1626 70.7679 68.4159 70.6399 67.6693C70.5759 67.2853 70.5119 66.9226 70.4693 66.5386C70.4906 66.5386 70.5119 66.5173 70.5119 66.5173C71.2159 67.4346 71.8986 68.352 72.6026 69.2693C72.9226 69.0986 73.2213 68.9493 73.5199 68.7786C72.3679 67.2426 71.2159 65.7493 70.0853 64.2346C69.8079 64.3839 69.5519 64.4906 69.3173 64.6399C69.2533 64.6826 69.1893 64.8106 69.1893 64.896C69.2959 65.6639 69.4239 66.4533 69.5519 67.2213C69.6159 67.6479 69.7013 68.1386 69.7866 68.6933ZM26.1173 39.9786C26.0746 39.8506 26.0746 39.7653 26.0319 39.6799C25.8186 38.9546 25.5839 38.2506 25.3493 37.5253C25.3066 37.3546 25.3066 37.2693 25.4559 37.1626C26.0746 36.7146 26.6719 36.2666 27.2906 35.7973C27.3546 35.7546 27.3973 35.7119 27.5039 35.6266C27.3546 35.6266 27.2479 35.6266 27.1626 35.6266C26.4373 35.6266 25.6906 35.6053 24.9653 35.6053C24.7733 35.6053 24.7093 35.5413 24.6453 35.3706C24.4106 34.6666 24.1759 33.9839 23.9413 33.2799C23.9199 33.1946 23.8773 33.1093 23.8133 32.9599C23.5359 33.8133 23.2586 34.5813 23.0026 35.3706C22.9386 35.5413 22.8746 35.5839 22.7039 35.5839C21.9359 35.5839 21.1893 35.6053 20.4213 35.6053C20.3573 35.6053 20.2719 35.6266 20.1653 35.6266C20.8693 36.1386 21.5093 36.6293 22.1706 37.1199C22.3413 37.2266 22.3839 37.3333 22.3199 37.5466C22.0853 38.2293 21.8719 38.9333 21.6586 39.6159C21.6373 39.7013 21.6159 39.8079 21.5733 39.9573C22.3626 39.4026 23.1093 38.8693 23.8346 38.3573C24.6026 38.9119 25.3279 39.4239 26.1173 39.9786ZM82.1173 35.6053C82.1173 35.6266 82.0959 35.6693 82.0959 35.6906C82.8213 36.2239 83.5466 36.7573 84.2719 37.3119C83.9946 38.1866 83.7386 39.0186 83.4826 39.8719C83.5039 39.8933 83.5253 39.8933 83.5466 39.9146C84.2719 39.4026 85.0186 38.8906 85.7439 38.3573C86.4906 38.8906 87.2159 39.4026 88.0052 39.9573C87.9626 39.8293 87.9626 39.7653 87.9413 39.7013C87.7066 38.9546 87.4932 38.2293 87.2586 37.4826C87.2159 37.3333 87.2373 37.2479 87.3652 37.1626C87.9626 36.7146 88.5813 36.2666 89.1786 35.8186C89.2426 35.7759 89.3066 35.7119 89.3919 35.6479C89.3919 35.6266 89.3706 35.6053 89.3706 35.5839C88.5599 35.5839 87.7279 35.5839 86.9173 35.5839C86.7039 35.5839 86.6186 35.4986 86.5546 35.3279C86.2986 34.5599 86.0426 33.7706 85.7653 32.9599C85.7012 33.1093 85.6799 33.1946 85.6373 33.2799C85.4026 33.9626 85.1679 34.6666 84.9333 35.3706C84.8693 35.5413 84.8053 35.6053 84.6346 35.5839C83.7599 35.6053 82.9493 35.6053 82.1173 35.6053ZM42.0319 12.4159C42.0106 12.4373 42.0106 12.4373 41.9893 12.4586C41.9039 12.4159 41.8186 12.3733 41.7546 12.3306C40.6666 11.7119 39.5786 11.0719 38.4693 10.4533C38.3839 10.4106 38.2773 10.3679 38.1919 10.3893C37.9146 10.5173 37.6373 10.6666 37.3599 10.8159C38.2133 12.5013 39.0666 14.1439 39.9199 15.8293C40.2613 15.6586 40.5599 15.5093 40.8799 15.3386C40.3253 14.2506 39.7919 13.2053 39.2159 12.0959C39.3653 12.1813 39.4293 12.2026 39.5146 12.2453C40.6026 12.8639 41.7119 13.5039 42.7999 14.1226C42.8853 14.1653 43.0133 14.2293 43.0986 14.1866C43.3759 14.0586 43.6533 13.9093 43.9306 13.7599C43.0773 12.0746 42.2239 10.4319 41.3706 8.74661C41.0293 8.91728 40.7306 9.08794 40.4106 9.23728C40.9653 10.3253 41.4986 11.3706 42.0319 12.4159ZM82.7999 52.0533C82.9279 52.0106 82.9919 51.9893 83.0559 51.9893C84.3146 51.7119 85.5946 51.4559 86.8532 51.1786C86.9386 51.1573 87.0452 51.1146 87.0666 51.0506C87.1946 50.7733 87.3013 50.4746 87.4079 50.1759C85.6586 49.4933 83.9092 48.8319 82.1599 48.1493C82.0319 48.4906 81.9039 48.8106 81.7759 49.1519C82.9066 49.5786 84.0159 50.0266 85.1893 50.4746C85.0399 50.5173 84.9759 50.5386 84.8906 50.5386C83.6533 50.7946 82.4159 51.0506 81.1573 51.3279C81.0506 51.3493 80.9226 51.3919 80.8799 51.4773C80.7519 51.7546 80.6452 52.0319 80.5386 52.3519C82.2879 53.0346 84.0373 53.6959 85.7866 54.3786C85.9146 54.0373 86.0426 53.7173 86.1706 53.3759C85.0613 52.9066 83.9519 52.5013 82.7999 52.0533ZM61.0613 67.7333C59.4399 67.7333 58.1386 69.0346 58.1386 70.656C58.1386 72.2986 59.4613 73.6426 61.0399 73.6426C62.6826 73.6213 63.9839 72.3413 63.9839 70.7413C63.9839 69.0773 62.6613 67.7119 61.0613 67.7333ZM81.0506 61.9093C81.2426 61.632 81.4133 61.3973 81.6052 61.1626C81.6906 61.0346 81.6693 60.9493 81.6052 60.8426C81.4346 60.6079 81.2639 60.3519 81.1146 60.0959C81.0719 60.0319 81.0719 59.9039 81.1146 59.8613C81.4772 59.3279 81.8613 58.7733 82.2452 58.2613C82.2879 58.1973 82.4159 58.1546 82.5013 58.1759C82.7999 58.2399 83.0773 58.3253 83.3759 58.3893C83.4399 58.4106 83.5679 58.3893 83.5893 58.3466C83.7813 58.0906 83.9733 57.8133 84.1653 57.5359C84.1226 57.5146 84.1012 57.4933 84.0799 57.4933C82.2239 57.0239 80.3466 56.5333 78.4906 56.0639C78.4266 56.0426 78.3199 56.1066 78.2773 56.1493C78.1279 56.3199 78.0212 56.5333 77.8719 56.7039C77.7653 56.8533 77.7653 56.9599 77.8719 57.1093C78.8959 58.6453 79.9199 60.1813 80.9226 61.7173C80.9439 61.7599 80.9866 61.8239 81.0506 61.9093ZM49.7333 12.0106C50.0959 11.9893 50.4373 11.9679 50.7573 11.9253C50.7999 11.9253 50.8639 11.8399 50.8853 11.7759C50.9706 11.4986 51.0559 11.1999 51.1626 10.9226C51.1839 10.8373 51.2906 10.7306 51.3759 10.7306C52.0159 10.6666 52.6559 10.6026 53.3173 10.5813C53.4026 10.5813 53.5093 10.6453 53.5519 10.7306C53.7013 10.9866 53.8079 11.2639 53.9573 11.5413C53.9999 11.6053 54.0853 11.6693 54.1279 11.6693C54.4479 11.6479 54.7679 11.6266 55.1306 11.5839C55.0879 11.4773 55.0453 11.3919 55.0026 11.3066C54.2559 9.72794 53.4879 8.17061 52.7413 6.59194C52.5279 6.16528 52.5279 6.16528 52.0799 6.20794C51.9519 6.20794 51.8239 6.22928 51.6959 6.22928C51.5039 6.22928 51.4186 6.31461 51.3759 6.50661C50.9919 7.80794 50.6079 9.10928 50.2453 10.4106C50.0533 10.9226 49.9039 11.4346 49.7333 12.0106ZM24.3893 55.7439C24.4746 55.6586 24.5599 55.5946 24.6239 55.5306C25.7973 54.3999 26.9706 53.2906 28.1226 52.1599C28.3146 51.9679 28.6346 51.7759 28.6773 51.5626C28.7199 51.3493 28.5066 51.0719 28.4213 50.8159C28.3573 50.6239 28.2506 50.5813 28.0586 50.5813C26.2026 50.6453 24.3466 50.6879 22.4906 50.7519C22.4266 50.7519 22.3839 50.7733 22.2986 50.7733C22.4266 51.0719 22.5546 51.3493 22.6613 51.6266C22.7039 51.7759 22.7893 51.7973 22.9386 51.7973C23.2373 51.7759 23.5146 51.7759 23.8133 51.7973C23.8986 51.7973 24.0266 51.8826 24.0479 51.9466C24.3039 52.5226 24.5386 53.1199 24.7946 53.7173C24.8586 53.8453 24.8373 53.9306 24.7306 54.0159C24.5173 54.2079 24.3039 54.3999 24.1119 54.6133C24.0479 54.6773 24.0266 54.8053 24.0479 54.8693C24.1333 55.1466 24.2613 55.4239 24.3893 55.7439ZM38.8746 16.4266C38.7679 16.3626 38.6826 16.3199 38.5973 16.2773C37.1893 15.4879 35.7813 14.6773 34.3733 13.8879C34.1386 13.7599 33.8613 13.5039 33.6266 13.5253C33.3919 13.5466 33.1999 13.8453 32.9653 14.0159C32.8159 14.1226 32.7946 14.2293 32.8586 14.3999C33.2853 15.6586 33.7119 16.9173 34.1173 18.1759C34.3093 18.7306 34.4799 19.2853 34.6933 19.8826C34.9493 19.6693 35.1839 19.4773 35.4186 19.3066C35.5466 19.2213 35.5679 19.1146 35.5039 18.9866C35.3973 18.7306 35.3333 18.4533 35.2479 18.1973C35.2053 18.0693 35.2266 17.9839 35.3333 17.8986C35.8239 17.4933 36.3146 17.0879 36.8053 16.6826C36.9119 16.5973 36.9759 16.5973 37.1039 16.6613C37.3599 16.8106 37.6159 16.9599 37.8719 17.1093C37.9359 17.1519 38.0639 17.1519 38.1066 17.1093C38.3626 16.8746 38.5973 16.6613 38.8746 16.4266ZM25.9893 46.9973C26.8639 46.0586 27.0559 44.5439 26.4373 43.3919C25.8186 42.2186 24.6239 41.6426 23.3013 41.8986C22.0426 42.1333 21.0826 43.0506 20.9333 44.2239C20.7626 45.5039 21.1893 46.7626 22.3839 47.4879C22.5973 47.2319 22.7893 46.9546 23.0026 46.6986C21.8719 45.6106 21.6373 44.5226 22.3413 43.6479C22.9386 42.9013 24.1333 42.7093 24.9226 43.2426C25.8826 43.8826 25.9893 44.9493 25.1999 46.3786C25.4773 46.5919 25.7333 46.7839 25.9893 46.9973ZM69.1679 13.5893C67.6959 13.9733 66.6292 13.5679 66.2453 12.5013C65.9252 11.6053 66.3946 10.5173 67.2479 10.1333C67.6959 9.91994 68.1439 9.87728 68.6133 10.0479C69.3812 10.3039 69.8079 10.8586 70.0853 11.5839C70.4266 11.4773 70.7253 11.3493 71.0452 11.2426C70.7679 10.0479 69.5733 9.02394 68.3573 8.91728C66.9279 8.78928 65.8186 9.45061 65.2853 10.7733C64.7946 11.9893 65.0933 13.2906 66.0533 14.0586C67.0773 14.8906 68.3359 15.1039 69.4666 14.5493C69.3812 14.2293 69.2746 13.9306 69.1679 13.5893ZM55.6639 69.6106C54.8746 68.5226 53.4239 68.0533 52.1439 68.4586C50.8639 68.8639 50.1173 69.9306 50.1173 71.296C50.1173 72.5973 50.8639 73.6639 52.0586 74.048C53.2959 74.4533 54.7893 74.0906 55.3866 73.2373C55.1733 72.9813 54.9599 72.7253 54.7466 72.4906C54.4693 72.6613 54.2346 72.8533 53.9786 72.9813C53.1679 73.3866 52.1013 73.1519 51.5679 72.4479C51.0346 71.7653 51.0559 70.6773 51.6319 69.9946C52.3359 69.1839 53.5733 69.1199 54.4693 69.8453C54.6186 69.9733 54.7466 70.1013 54.8746 70.2293C55.1519 70.0373 55.3866 69.8239 55.6639 69.6106ZM29.3813 20.5013C28.8479 20.0746 28.3786 19.6906 27.8879 19.3066C27.6533 19.6053 27.4399 19.8826 27.2053 20.1599C28.6773 21.3546 30.1279 22.5066 31.5786 23.6799C31.8133 23.3813 32.0266 23.1253 32.2613 22.8266C31.6213 22.3146 31.0026 21.8239 30.3413 21.2693C30.4693 21.2693 30.5333 21.2906 30.6186 21.2906C31.4506 21.3546 32.3039 21.4186 33.1359 21.4613C33.2213 21.4613 33.3493 21.4613 33.3919 21.3973C33.6479 21.1199 33.8826 20.7999 34.1386 20.4799C34.0533 20.4586 33.9893 20.4586 33.9466 20.4586C32.8586 20.3733 31.7706 20.2879 30.6826 20.2239C30.4479 20.2026 30.3413 20.1599 30.2986 19.9253C30.2133 19.4559 30.0853 19.0079 29.9786 18.5599C29.8719 18.0906 29.7653 17.6213 29.6373 17.1093C29.3813 17.4293 29.1679 17.6639 28.9759 17.9413C28.9119 18.0479 28.8693 18.2186 28.8906 18.3253C29.0399 19.0506 29.2106 19.7333 29.3813 20.5013ZM42.1173 71.7439C42.2666 71.4026 42.4159 71.1039 42.5653 70.7839C41.9466 70.5066 41.3493 70.2293 40.7519 69.9519C40.9653 69.5039 41.1573 69.0773 41.3706 68.6293C41.9893 68.9066 42.5866 69.1839 43.1839 69.4613C43.3333 69.1413 43.4613 68.8426 43.6106 68.5226C42.9919 68.2453 42.4159 67.9679 41.7973 67.6906C41.9466 67.3706 42.0746 67.0933 42.2239 66.7946C42.8426 67.0719 43.4186 67.3493 44.0373 67.6266C44.1866 67.3066 44.3146 67.0079 44.4853 66.6666C43.5466 66.2399 42.6293 65.8133 41.6906 65.3866C40.9013 67.0933 40.1333 68.7786 39.3439 70.4853C40.2613 70.8906 41.1786 71.2959 42.1173 71.7439ZM72.5386 62.2933C73.8186 63.7226 75.0559 65.1093 76.2933 66.5173C76.5706 66.2613 76.8266 66.0266 77.1039 65.7919C76.5706 65.1946 76.0586 64.6186 75.5039 63.9999C75.7599 63.7653 75.9946 63.5733 76.2079 63.3386C76.7199 62.7199 76.6773 61.9306 76.1439 61.3119C75.5893 60.6719 74.8213 60.5439 74.1599 61.0133C73.6053 61.3759 73.0933 61.8453 72.5386 62.2933ZM44.9119 12.2453C45.4453 12.8213 46.0426 13.1413 46.8319 12.9706C47.5786 12.8213 48.1333 12.3093 48.2399 11.6693C48.3679 10.9653 48.0479 10.3253 47.3653 9.91994C47.0453 9.72794 46.7039 9.59994 46.3839 9.42928C46.0853 9.27994 45.7653 9.15194 45.4666 8.95994C45.1679 8.78928 45.2106 8.42661 45.5306 8.29861C45.6799 8.23461 45.8719 8.23461 46.0213 8.25594C46.2133 8.29861 46.4053 8.42661 46.6186 8.53328C46.7893 8.25594 46.9813 7.97861 47.1733 7.67994C46.7893 7.42394 46.4266 7.23194 45.9786 7.18928C45.2533 7.10394 44.5279 7.55194 44.2719 8.23461C44.0373 8.87461 44.2933 9.49328 44.9546 9.91994C45.0399 9.98394 45.1466 10.0479 45.2319 10.0906C45.5946 10.2613 45.9786 10.4319 46.3413 10.6239C46.5546 10.7306 46.7679 10.8373 46.9599 10.9653C47.2799 11.2213 47.2586 11.6053 46.9173 11.8399C46.6613 12.0106 46.3839 12.0106 46.1066 11.8613C45.9146 11.7546 45.7653 11.6266 45.5733 11.4986C45.4026 11.7333 45.1679 11.9893 44.9119 12.2453ZM56.1973 10.6026C56.4746 11.3066 56.8799 11.8186 57.6266 11.9893C58.8853 12.2879 59.8879 11.4346 59.7386 10.2186C59.6959 9.79194 59.4613 9.47194 59.1839 9.17328C58.7999 8.74661 58.3946 8.31994 58.0106 7.89328C57.8826 7.74394 57.7759 7.55194 57.9253 7.35994C58.0746 7.16794 58.2879 7.14661 58.4799 7.23194C58.6293 7.29594 58.7573 7.40261 58.8853 7.53061C58.9919 7.61594 59.0559 7.74394 59.1413 7.87194C59.4399 7.65861 59.7173 7.46661 59.9946 7.27461C59.6746 6.82661 59.3546 6.44261 58.8426 6.27194C58.1599 6.03728 57.4346 6.25061 57.0293 6.78394C56.6453 7.27461 56.6666 7.93594 57.1146 8.53328C57.3706 8.87461 57.6693 9.17328 57.9466 9.49328C58.1386 9.70661 58.3306 9.91994 58.5226 10.1546C58.6719 10.3466 58.7359 10.5599 58.5866 10.7733C58.4373 10.9866 58.2026 11.0933 57.9679 11.0293C57.7546 10.9653 57.5626 10.8159 57.3919 10.6453C57.2639 10.5386 57.2213 10.3679 57.1146 10.1973C56.8373 10.3039 56.5173 10.4533 56.1973 10.6026ZM83.3119 41.6426C83.2692 41.8986 83.2692 42.1333 83.2053 42.3679C83.1199 42.6666 83.2266 42.8586 83.4826 43.0079C83.7599 43.1573 83.9946 43.3706 84.2719 43.5413C84.5066 43.7119 84.7413 43.8613 84.9973 44.0533C84.8906 44.0959 84.8053 44.1386 84.7412 44.1599C84.1866 44.3733 83.6106 44.5653 83.0559 44.7786C82.9706 44.7999 82.8853 44.8853 82.8639 44.9493C82.7999 45.2906 82.7573 45.6106 82.7146 45.9946C82.8426 45.9519 82.9279 45.9306 83.0133 45.8879C83.9733 45.5466 84.9119 45.2053 85.8719 44.8639C85.9999 44.8213 86.1279 44.7999 86.2773 44.7999C86.5759 44.8213 86.8746 44.8853 87.1946 44.9279C87.6213 44.9919 88.0693 45.0346 88.5173 45.0986C88.5599 44.7359 88.6026 44.3946 88.6452 44.0319C88.1119 43.9679 87.5999 43.8826 87.1093 43.8399C86.5546 43.7973 86.0639 43.6479 85.6159 43.2853C84.9546 42.7733 84.2506 42.3253 83.5679 41.8559C83.4826 41.7493 83.3972 41.7066 83.3119 41.6426ZM80.0906 20.5013C80.0906 20.4586 80.0906 20.4373 80.0906 20.4373C80.3679 19.8399 80.6453 19.2426 80.9226 18.6239C80.9653 18.5599 80.9653 18.4319 80.9439 18.3679C80.7519 18.0906 80.5386 17.8346 80.3039 17.5359C80.2399 17.6426 80.2186 17.7066 80.1759 17.7919C79.8986 18.3679 79.5999 18.9439 79.3652 19.5626C79.0452 20.4373 78.5333 21.1413 77.7226 21.6319C77.4239 21.8239 77.1679 22.0586 76.8693 22.2933C77.1039 22.5919 77.3173 22.8693 77.5306 23.1466C78.1279 22.6986 78.6826 22.2506 79.2586 21.8026C79.3652 21.7173 79.5146 21.6533 79.6639 21.6106C80.3893 21.4613 81.1146 21.3333 81.8399 21.2053C82.2026 21.1413 82.5653 21.0559 82.9493 20.9919C82.7573 20.7573 82.5866 20.5653 82.4586 20.3519C82.3306 20.1386 82.1599 20.0959 81.9252 20.1599C81.3279 20.2666 80.7093 20.3733 80.0906 20.5013ZM35.6106 61.1413C34.8853 60.4373 34.1599 59.7119 33.4559 59.0293C33.2213 59.264 32.9866 59.4986 32.6879 59.7759C32.9013 59.9679 33.1359 60.1813 33.3706 60.3733C32.2826 61.4826 31.2373 62.5493 30.1919 63.6373C30.4266 63.8719 30.6613 64.1066 30.9599 64.4053C32.0053 63.3173 33.0506 62.2293 34.1173 61.1199C34.3946 61.4186 34.6293 61.6746 34.8639 61.9093C35.1413 61.6533 35.3759 61.4186 35.6106 61.1413ZM32.3039 57.5786C31.7066 56.7253 31.1306 55.8933 30.5333 55.0186C30.2346 55.2319 29.9573 55.4239 29.6586 55.6373C29.8506 55.9146 30.0426 56.1706 30.2346 56.4479C28.9759 57.3226 27.7386 58.1759 26.5013 59.0506C26.7146 59.3706 26.9279 59.6479 27.1199 59.9466C28.3786 59.0719 29.6159 58.2186 30.8533 57.3439C31.0666 57.6426 31.2373 57.8986 31.4506 58.1759C31.7279 57.9839 32.0053 57.7919 32.3039 57.5786ZM74.2879 19.4773C75.3119 18.3466 76.3359 17.2373 77.3599 16.1279C77.6159 16.3626 77.8719 16.5759 78.1066 16.8106C78.3626 16.5333 78.5759 16.2986 78.8319 16.0213C78.0639 15.3173 77.2959 14.6133 76.5279 13.9093C76.2719 14.1866 76.0586 14.4213 75.8026 14.6986C76.0586 14.9333 76.2933 15.1466 76.5279 15.3813C75.5039 16.5119 74.4799 17.6213 73.4559 18.7306C73.7546 19.0079 74.0106 19.2426 74.2879 19.4773ZM34.2026 67.2426C34.9279 67.7546 35.6319 68.2666 36.3573 68.7573C36.5706 68.4586 36.7626 68.2026 36.9546 67.9253C36.5279 67.6266 36.1013 67.3279 35.6959 67.0293C36.5919 65.7706 37.4666 64.5333 38.3413 63.2959C38.0426 63.0826 37.7439 62.8693 37.4666 62.6773C36.3573 64.1919 35.2906 65.7066 34.2026 67.2426ZM73.6479 11.7973C72.5813 13.3546 71.5146 14.8693 70.4479 16.4053C70.7466 16.6186 71.0453 16.8106 71.3226 17.0239C72.3893 15.4666 73.4559 13.9519 74.5226 12.3946C74.2453 12.2026 73.9679 12.0106 73.6479 11.7973Z" fill="#231F20"/>
<path d="M19.0132 28.5867C19.4186 28.9493 19.7812 29.2907 20.1652 29.632C20.2932 29.7387 20.2292 29.8453 20.2079 29.952C19.9519 31.04 19.6319 32.128 19.4186 33.2373C18.8639 36.096 18.6719 38.976 18.8212 41.8987C19.0986 47.1253 20.3786 52.0747 22.8532 56.6827C28.1226 66.4533 36.1652 72.64 46.9812 75.2C50.1813 75.9467 53.4239 76.1813 56.6879 76.0107C72.2613 75.2 85.5946 64.3627 89.5839 49.2587C90.5226 45.696 90.9066 42.0693 90.7359 38.3787C90.6079 35.4987 90.1386 32.6827 89.3279 29.9307C89.2853 29.76 89.3066 29.6533 89.4559 29.5467C89.8186 29.248 90.1813 28.928 90.5439 28.608C94.1279 39.0187 93.3173 55.7227 80.0906 67.7973C66.8853 79.8507 47.1093 80.96 32.7092 70.4213C17.8186 59.52 14.6399 41.7493 19.0132 28.5867Z" fill="#929292"/>
<path d="M23.4079 22.2933C23.0666 21.888 22.7466 21.5253 22.4266 21.1413C22.3839 21.0986 22.4052 20.9493 22.4479 20.8853C23.5786 18.944 24.8799 17.1307 26.3519 15.4453C31.2799 9.83465 37.3172 5.95198 44.4852 3.88265C48.4106 2.75198 52.4426 2.32532 56.5386 2.49598C69.2959 3.07198 80.6666 10.1333 87.0239 20.7787C87.1306 20.9493 87.1306 21.0773 87.0026 21.2267C86.7039 21.568 86.4266 21.9093 86.1066 22.272C81.6479 14.6773 75.3972 9.23732 67.1412 6.22932C58.9066 3.22132 50.5866 3.22132 42.3519 6.22932C34.1386 9.23732 27.8879 14.6773 23.4079 22.2933Z" fill="#929292"/>
<path d="M76.0587 33.1307C76.6347 33.5573 77.1894 33.984 77.744 34.4107C78.2134 34.7947 78.256 35.4347 77.8507 35.8613C77.5307 36.2027 77.1894 36.5227 76.848 36.8427C76.4 37.2693 75.8667 37.4613 75.248 37.4827C72.7094 37.4827 70.1707 37.504 67.6107 37.5253C67.5254 37.5253 67.4187 37.5253 67.312 37.5253C67.248 37.888 67.2054 38.2293 67.1414 38.592C66.7147 40.96 65.9894 43.2427 65.0294 45.44C64.368 46.9973 63.6427 48.512 62.896 50.0267C62.3627 51.072 62.064 52.1813 61.8934 53.3333C61.8294 53.7173 61.808 54.1013 61.744 54.464C61.616 55.168 61.7867 55.8507 61.872 56.5547C62 57.7707 61.9787 58.944 61.296 60.032C60.5494 61.2053 59.4614 61.824 58.1387 62.1013C56.688 62.4 55.2374 62.3573 53.7867 62.272C52.912 62.2293 52.0374 62.1867 51.1627 62.0373C49.84 61.8027 48.7734 61.1627 48.0907 59.968C47.5787 59.0933 47.4934 58.1547 47.6854 57.1733C48.1974 54.72 47.792 52.3733 46.7254 50.1333C46.256 49.1307 45.68 48.1707 45.168 47.168C44.2507 45.3973 43.632 43.4987 43.0134 41.6C42.8427 41.0453 42.672 40.4693 42.48 39.9147C42.2454 39.2747 42.16 38.6133 42.2027 37.9307C42.2027 37.8027 42.2027 37.6747 42.2027 37.5253C41.7334 37.568 41.2854 37.632 40.8587 37.6747C39.4934 37.7813 38.128 37.9093 36.7414 37.952C35.5894 37.9733 34.48 37.696 33.392 37.3333C32.7094 37.12 32.1974 36.6507 31.856 36.0107C31.536 35.4133 31.5787 34.8373 31.984 34.304C32.368 33.8133 32.8587 33.472 33.4347 33.2373C33.52 33.1947 33.584 33.1733 33.6694 33.088C33.136 33.024 32.5814 32.9813 32.048 32.9173C30.192 32.704 28.336 32.576 26.5227 32.256C22.3627 31.5307 19.2694 29.248 17.136 25.6C15.984 23.616 14.9814 21.5467 14.064 19.456C13.616 18.4533 13.0827 17.4933 12.4 16.6187C11.2907 15.232 9.84004 14.4853 8.11204 14.2507C6.64004 14.0373 5.16804 14.1227 3.69604 14.272C3.52537 14.2933 3.37604 14.3147 3.20537 14.3147C2.77871 14.336 2.43737 14.144 2.24537 13.76C2.05337 13.376 2.11737 12.992 2.39471 12.672C3.58937 11.3493 5.06137 10.3893 6.85337 10.2187C11.504 9.74934 15.408 11.2 18.1814 15.104C19.4187 16.8533 20.5707 18.6667 21.744 20.48C23.1307 22.592 24.944 24.1067 27.3974 24.832C28.3147 25.1093 29.232 25.2373 30.192 25.28C34.1174 25.3867 38.0214 25.28 41.9467 25.1093C43.2267 25.0667 44.4854 24.9813 45.7654 24.9173C46.384 24.8747 46.96 24.704 47.4934 24.4267C48.4107 23.9573 49.3067 23.4667 50.2454 22.9973C51.7814 22.2293 53.4027 21.7813 55.152 21.8453C56.7734 21.9093 58.2667 22.4 59.696 23.104C60.7414 23.616 61.7867 24.1707 62.9174 24.512C63.9627 24.832 65.008 25.0453 66.096 25.088C70.0427 25.2373 73.9894 25.2587 77.936 25.1093C78.8534 25.088 79.7707 25.0453 80.6667 25.0027C82.8214 24.9173 84.6347 24.0427 86.1707 22.5493C86.9174 21.824 87.5147 20.992 88.0907 20.1173C89.2854 18.3467 90.4374 16.5547 91.6747 14.8267C93.5094 12.224 96.0694 10.7733 99.184 10.2827C100.592 10.0693 101.979 9.984 103.387 10.2827C104.965 10.624 106.267 11.4347 107.291 12.6933C107.547 13.0133 107.611 13.3973 107.419 13.76C107.227 14.144 106.907 14.3573 106.48 14.3147C105.733 14.2507 104.987 14.1653 104.24 14.08C101.637 13.8027 99.3334 14.3787 97.4347 16.2773C96.7947 16.9387 96.304 17.7067 95.92 18.5387C95.024 20.5013 94.128 22.4853 93.1894 24.4267C91.2694 28.3733 88.1334 30.8907 83.9307 32.0853C82.3307 32.5333 80.688 32.7467 79.0454 32.8533C78 32.96 77.0187 33.0453 76.0587 33.1307ZM74.2454 32.9813C74.352 32.9387 74.3734 32.9387 74.416 32.9387C75.9947 32.7893 77.552 32.5973 79.1307 32.4693C80.688 32.3413 82.224 32.1707 83.7174 31.744C87.8347 30.592 90.9067 28.16 92.8054 24.2987C93.744 22.3573 94.6187 20.3733 95.5574 18.4107C95.856 17.792 96.176 17.1947 96.6027 16.6613C98.544 14.2293 101.147 13.4187 104.155 13.696C104.901 13.76 105.669 13.8667 106.416 13.9307C106.693 13.952 106.907 13.8667 107.035 13.6107C107.163 13.3547 107.099 13.1413 106.928 12.928C105.989 11.7973 104.816 11.0293 103.365 10.7093C102.064 10.4107 100.741 10.4747 99.4187 10.6453C96.3254 11.0933 93.7867 12.48 91.9734 15.0613C90.7574 16.7893 89.6054 18.56 88.432 20.3093C87.7494 21.312 87.0454 22.2933 86.1494 23.1253C84.8694 24.2987 83.376 25.088 81.648 25.3013C80.624 25.4293 79.6 25.4507 78.5547 25.4933C75.0987 25.6213 71.6214 25.664 68.1654 25.5573C67.0774 25.5147 65.9894 25.4933 64.9014 25.3653C63.28 25.1733 61.7654 24.576 60.3147 23.8507C59.6534 23.5307 58.992 23.1893 58.288 22.912C56.7307 22.2933 55.1094 22.0587 53.424 22.3147C52.08 22.528 50.8427 23.04 49.6694 23.68C49.072 24 48.4747 24.3413 47.856 24.64C47.2587 24.9387 46.64 25.1947 45.9574 25.2373C44.656 25.3227 43.376 25.3867 42.0747 25.4507C38.128 25.6427 34.1814 25.728 30.2347 25.6427C28.7414 25.6 27.312 25.3227 25.9467 24.704C24.0267 23.8507 22.576 22.464 21.424 20.7147C20.2507 18.9227 19.0987 17.088 17.8614 15.3387C15.152 11.52 11.3334 10.112 6.76804 10.6027C5.12537 10.7733 3.78137 11.6693 2.69337 12.9067C2.52271 13.0987 2.48004 13.3333 2.60804 13.568C2.71471 13.8027 2.94937 13.9093 3.22671 13.888C3.39737 13.8667 3.56804 13.8453 3.73871 13.8453C5.27471 13.696 6.81071 13.632 8.34671 13.8667C9.98937 14.1227 11.3974 14.8267 12.4854 16.0853C13.2747 17.0667 13.872 18.1333 14.384 19.2853C15.3014 21.3973 16.304 23.4667 17.456 25.4507C19.5467 29.0133 22.5974 31.2107 26.672 31.8933C28.912 32.256 31.1734 32.4267 33.4347 32.6827C34.096 32.7467 34.7574 32.8107 35.4187 32.8747C35.3547 32.9387 35.2694 32.9813 35.2054 33.0027C34.672 33.1947 34.1387 33.3867 33.6054 33.6C33.0934 33.792 32.6454 34.112 32.2827 34.5387C31.9627 34.944 31.92 35.3707 32.176 35.8187C32.4747 36.352 32.9227 36.7787 33.52 36.9493C34.7574 37.3333 36.0374 37.6107 37.3387 37.5253C38.8534 37.4187 40.3467 37.2693 41.84 37.1413C42.096 37.12 42.352 37.0987 42.608 37.056C42.48 39.168 42.5867 38.9547 43.0987 40.5973C43.1414 40.768 43.2054 40.9173 43.248 41.088C43.8667 43.0293 44.4854 44.9493 45.4027 46.7627C45.8934 47.7227 46.4267 48.64 46.896 49.5787C48.112 52.032 48.5814 54.592 48.0267 57.3227C47.6854 58.9867 48.4747 60.48 49.9894 61.2053C50.4374 61.4187 50.9067 61.6107 51.3974 61.6533C52.9547 61.7813 54.512 61.8667 56.0694 61.888C56.9654 61.9093 57.8614 61.8027 58.7147 61.504C60.1867 60.992 61.1467 60.0107 61.424 58.4533C61.5307 57.8133 61.4667 57.1307 61.4454 56.4693C61.424 55.808 61.3387 55.168 61.3387 54.5067C61.3387 54.1227 61.424 53.7387 61.488 53.3333C61.6587 52.0533 62 50.8373 62.5974 49.6853C63.3014 48.2987 63.9627 46.8907 64.5814 45.4613C65.584 43.1573 66.3734 40.7893 66.7787 38.2933C66.8427 37.888 66.9067 37.4827 66.9707 37.0773C67.0774 37.0773 67.1627 37.0773 67.248 37.0773C69.936 37.056 72.6027 37.0347 75.2907 37.0347C75.7814 37.0347 76.208 36.864 76.5707 36.544C76.912 36.224 77.2534 35.8827 77.5734 35.5627C77.8294 35.3067 77.7867 34.944 77.5094 34.7093C77.3174 34.5387 77.104 34.3893 76.912 34.2187C76.4854 33.856 76.016 33.5573 75.4827 33.3867C75.0774 33.3013 74.6934 33.152 74.2454 32.9813Z" fill="#929292"/>
<path d="M29.3601 32.8748C29.5734 32.8961 29.7654 32.9174 29.9574 32.9388C27.7174 42.1974 29.4881 50.4961 35.9521 57.5574C40.9654 63.0188 47.3228 65.7708 54.7468 65.7494C63.2161 65.7281 70.1281 62.2934 75.2694 55.5734C80.4108 48.8321 81.6268 41.2374 79.6214 33.0668C79.7921 33.0454 79.9414 33.0028 80.1121 33.0241C80.1761 33.0241 80.2614 33.1308 80.2828 33.2161C80.4748 34.0481 80.6881 34.8588 80.8161 35.6908C81.2001 37.9094 81.2854 40.1494 81.0721 42.3894C80.6881 46.6774 79.3441 50.6668 76.9974 54.2934C73.2214 60.0961 67.9521 63.8934 61.2534 65.6428C58.4801 66.3681 55.6641 66.6028 52.8054 66.3894C41.9894 65.5788 32.7948 58.2614 29.5521 47.8934C28.5708 44.7361 28.2081 41.4934 28.4428 38.1868C28.5708 36.3094 28.9761 34.0694 29.3601 32.8748Z" fill="#929292"/>
<path d="M76.4213 24.9387C76.3786 24.9387 76.3573 24.9387 76.3573 24.96C75.888 25.0454 75.6106 24.8747 75.312 24.4907C71.7066 19.776 67.0346 16.64 61.296 15.1254C58.608 14.4 55.856 14.144 53.0826 14.3574C45.744 14.912 39.728 18.0267 34.9706 23.616C34.6293 24 34.3306 24.4054 34.032 24.832C33.8826 25.0454 33.7333 25.152 33.4773 25.1094C33.3493 25.088 33.2213 25.1094 33.0293 25.1094C35.1626 22.0374 37.7653 19.5414 40.9013 17.6C44.0373 15.6587 47.408 14.4214 51.056 13.9094C62.6826 12.2667 72.0053 18.3254 76.4213 24.9387Z" fill="#929292"/>
<path d="M69.7866 68.6933C69.7012 68.1387 69.6159 67.648 69.5519 67.1573C69.4239 66.3893 69.2959 65.6213 69.1892 64.832C69.1679 64.7467 69.2532 64.6187 69.3172 64.576C69.5519 64.4267 69.8079 64.32 70.0852 64.1707C71.2372 65.6853 72.3679 67.1787 73.5199 68.7147C73.1999 68.8853 72.9012 69.0347 72.6026 69.2053C71.8986 68.288 71.1946 67.3707 70.5119 66.4533C70.4906 66.4533 70.4692 66.4747 70.4692 66.4747C70.5332 66.8587 70.5972 67.2213 70.6399 67.6053C70.7679 68.352 70.8959 69.12 71.0026 69.8667C71.0026 69.9307 70.9599 70.0373 70.8959 70.08C70.2132 70.5067 70.2132 70.5067 69.6372 69.9307C68.9546 69.2693 68.2719 68.608 67.5466 67.968C67.5892 68.096 67.6106 68.224 67.6532 68.3307C67.9519 69.2267 68.2292 70.1227 68.5279 71.0187C68.5919 71.232 68.5492 71.296 68.3785 71.3813C68.1439 71.488 67.9306 71.616 67.6746 71.744C67.5039 71.1893 67.3332 70.6773 67.1626 70.1653C66.7786 68.9707 66.3946 67.776 65.9892 66.56C65.9252 66.368 65.9465 66.2613 66.1385 66.176C66.3732 66.0693 66.6292 65.8347 66.8426 65.856C67.0559 65.8773 67.2266 66.176 67.3972 66.3467C68.1226 67.0293 68.8265 67.7333 69.5519 68.416C69.6159 68.544 69.6799 68.5867 69.7866 68.6933Z" fill="#929292"/>
<path d="M26.1174 39.9788C25.3494 39.4241 24.6028 38.9121 23.8561 38.3788C23.1094 38.8908 22.3841 39.4241 21.5948 39.9788C21.6374 39.8294 21.6588 39.7228 21.6801 39.6374C21.8934 38.9548 22.1068 38.2508 22.3414 37.5681C22.4054 37.3548 22.3628 37.2694 22.1921 37.1414C21.5308 36.6721 20.8908 36.1814 20.1868 35.6481C20.3148 35.6481 20.3788 35.6268 20.4428 35.6268C21.2108 35.6054 21.9574 35.6054 22.7254 35.6054C22.8961 35.6054 22.9814 35.5414 23.0241 35.3921C23.2801 34.6028 23.5574 33.8348 23.8348 32.9814C23.8988 33.1308 23.9201 33.2161 23.9628 33.3014C24.1974 34.0054 24.4321 34.6881 24.6668 35.3921C24.7308 35.5628 24.7948 35.6268 24.9868 35.6268C25.7121 35.6268 26.4588 35.6481 27.1841 35.6481C27.2694 35.6481 27.3548 35.6481 27.5254 35.6481C27.4188 35.7334 27.3761 35.7761 27.3121 35.8188C26.6934 36.2668 26.0961 36.7361 25.4774 37.1841C25.3281 37.2908 25.3068 37.3761 25.3708 37.5468C25.6054 38.2508 25.8188 38.9761 26.0534 39.7014C26.0534 39.7654 26.0748 39.8508 26.1174 39.9788Z" fill="#929292"/>
<path d="M82.1172 35.6054C82.9492 35.6054 83.7599 35.6054 84.5919 35.6054C84.7626 35.6054 84.8479 35.5414 84.8906 35.3921C85.1039 34.6881 85.3599 34.0054 85.5946 33.3014C85.6372 33.2161 85.6586 33.1094 85.7226 32.9814C85.9999 33.8134 86.2772 34.5814 86.5119 35.3494C86.5759 35.5414 86.6612 35.6268 86.8746 35.6054C87.6852 35.5841 88.5172 35.6054 89.3279 35.6054C89.3279 35.6268 89.3492 35.6481 89.3492 35.6694C89.2852 35.7334 89.2212 35.7761 89.1359 35.8401C88.5386 36.2881 87.9412 36.7361 87.3226 37.1841C87.1946 37.2694 87.1732 37.3548 87.2159 37.5041C87.4506 38.2508 87.6852 38.9761 87.8986 39.7228C87.9199 39.7868 87.9199 39.8294 87.9626 39.9788C87.1732 39.4241 86.4479 38.9121 85.7012 38.3788C84.9759 38.8908 84.2506 39.4028 83.5039 39.9361C83.4826 39.9148 83.4612 39.9148 83.4399 39.8934C83.6959 39.0401 83.9732 38.1868 84.2292 37.3334C83.5039 36.8001 82.7786 36.2454 82.0532 35.7121C82.0959 35.6694 82.1172 35.6481 82.1172 35.6054Z" fill="#929292"/>
<path d="M42.0321 12.4161C41.4988 11.3707 40.9654 10.3254 40.4108 9.25873C40.7308 9.08807 41.0294 8.93873 41.3708 8.76807C42.2241 10.4321 43.0774 12.0961 43.9308 13.7814C43.6534 13.9307 43.3761 14.0801 43.0988 14.2081C43.0134 14.2507 42.8854 14.1867 42.8001 14.1441C41.7121 13.5254 40.6028 12.8854 39.5148 12.2667C39.4508 12.2241 39.3654 12.1814 39.2161 12.1174C39.7921 13.2267 40.3254 14.2721 40.8801 15.3601C40.5601 15.5307 40.2614 15.6801 39.9201 15.8507C39.0668 14.1867 38.2134 12.5227 37.3601 10.8374C37.6588 10.6881 37.9148 10.5387 38.1921 10.4107C38.2561 10.3894 38.3841 10.4321 38.4694 10.4747C39.5574 11.0934 40.6668 11.7334 41.7548 12.3521C41.8401 12.3947 41.9041 12.4374 41.9894 12.4801C42.0108 12.4374 42.0108 12.4374 42.0321 12.4161Z" fill="#929292"/>
<path d="M82.8001 52.0533C83.9521 52.5013 85.0614 52.9279 86.1921 53.3546C86.0641 53.6959 85.9361 54.0159 85.8081 54.3573C84.0587 53.6746 82.3094 53.0133 80.5601 52.3306C80.6881 52.0319 80.7734 51.7333 80.9014 51.4559C80.9441 51.3706 81.0721 51.3279 81.1787 51.3066C82.4161 51.0293 83.6534 50.7733 84.9121 50.5173C84.9974 50.4959 85.0614 50.4746 85.2107 50.4533C84.0374 50.0053 82.9281 49.5786 81.7974 49.1306C81.9254 48.7893 82.0534 48.4693 82.1814 48.1279C83.9307 48.8106 85.6587 49.4719 87.4294 50.1546C87.3014 50.4746 87.2161 50.7519 87.0881 51.0293C87.0667 51.0933 86.9387 51.1359 86.8747 51.1573C85.6161 51.4346 84.3361 51.7119 83.0774 51.9679C82.9921 51.9893 82.9281 52.0106 82.8001 52.0533Z" fill="#929292"/>
<path d="M61.0613 67.7334C62.6613 67.7334 63.984 69.0774 63.984 70.7414C63.984 72.3414 62.6827 73.6427 61.04 73.6427C59.44 73.6641 58.1387 72.2987 58.1387 70.6561C58.1387 69.0347 59.44 67.7334 61.0613 67.7334ZM61.0613 72.5761C62.0853 72.5761 62.896 71.7867 62.9173 70.7627C62.9173 69.6961 62.0853 68.8001 61.0827 68.8001C60.0373 68.8001 59.248 69.5894 59.2267 70.6134C59.2267 71.7441 59.9947 72.5761 61.0613 72.5761Z" fill="#929292"/>
<path d="M81.0508 61.9093C80.9868 61.824 80.9441 61.76 80.9014 61.696C79.8774 60.16 78.8748 58.624 77.8508 57.088C77.7441 56.9387 77.7441 56.832 77.8508 56.6827C78.0001 56.512 78.1068 56.2987 78.2561 56.128C78.2988 56.064 78.4054 56.0213 78.4694 56.0427C80.3468 56.512 82.2027 56.9813 84.0587 57.472C84.0801 57.472 84.1014 57.4933 84.1441 57.5147C83.9521 57.792 83.7601 58.0693 83.5681 58.3253C83.5254 58.368 83.4187 58.3893 83.3547 58.368C83.0561 58.304 82.7787 58.2187 82.4801 58.1547C82.3947 58.1333 82.2881 58.176 82.2241 58.24C81.8401 58.7733 81.4561 59.3067 81.0934 59.84C81.0507 59.904 81.0507 60.0107 81.0934 60.0747C81.2427 60.3307 81.4134 60.5867 81.5841 60.8213C81.6694 60.928 81.6694 61.0133 81.5841 61.1413C81.4134 61.3973 81.2641 61.632 81.0508 61.9093ZM80.3894 59.0293C80.6881 58.624 80.9654 58.24 81.2428 57.8133C80.5814 57.6427 79.9627 57.4933 79.2801 57.3227C79.6641 57.92 80.0268 58.4747 80.3894 59.0293Z" fill="#929292"/>
<path d="M49.7334 12.0107C49.9041 11.4347 50.0534 10.9227 50.2027 10.3894C50.5867 9.08807 50.9707 7.78674 51.3334 6.48541C51.3761 6.29341 51.4614 6.20807 51.6534 6.20807C51.7814 6.20807 51.9094 6.18674 52.0374 6.18674C52.5067 6.14407 52.5067 6.14407 52.6987 6.57074C53.4667 8.14941 54.2134 9.70674 54.9601 11.2854C55.0027 11.3707 55.0241 11.4561 55.0881 11.5627C54.7467 11.5841 54.4054 11.6267 54.0854 11.6481C54.0214 11.6481 53.9361 11.5841 53.9147 11.5201C53.7654 11.2641 53.6587 10.9867 53.5094 10.7094C53.4667 10.6454 53.3387 10.5601 53.2747 10.5601C52.6347 10.6027 51.9734 10.6454 51.3334 10.7094C51.2481 10.7094 51.1414 10.8161 51.1201 10.9014C51.0134 11.1787 50.9494 11.4774 50.8427 11.7547C50.8214 11.8187 50.7574 11.9041 50.7147 11.9041C50.4374 11.9681 50.0961 11.9894 49.7334 12.0107ZM52.9974 9.53607C52.6987 8.91741 52.4214 8.34141 52.1014 7.70141C51.8881 8.38407 51.7174 9.00274 51.5254 9.64274C52.0374 9.62141 52.4854 9.57874 52.9974 9.53607Z" fill="#929292"/>
<path d="M24.3893 55.7441C24.2613 55.4241 24.1333 55.1467 24.0267 54.8481C24.0053 54.7841 24.0267 54.6561 24.0907 54.5921C24.2827 54.3787 24.496 54.1867 24.7093 53.9947C24.816 53.9094 24.8373 53.8241 24.7733 53.6961C24.5173 53.1201 24.2827 52.5227 24.0267 51.9254C23.984 51.8614 23.8773 51.7761 23.792 51.7761C23.4933 51.7547 23.216 51.7761 22.9173 51.7761C22.7893 51.7761 22.704 51.7547 22.64 51.6054C22.5333 51.3281 22.4053 51.0507 22.2773 50.7521C22.3627 50.7521 22.4053 50.7307 22.4693 50.7307C24.3253 50.6667 26.1813 50.6241 28.0373 50.5601C28.2293 50.5601 28.336 50.6027 28.4 50.7947C28.4853 51.0507 28.72 51.3281 28.656 51.5414C28.6133 51.7761 28.2933 51.9467 28.1013 52.1387C26.928 53.2694 25.776 54.3787 24.6027 55.5094C24.56 55.5947 24.496 55.6587 24.3893 55.7441ZM25.0933 51.7121C25.3067 52.2027 25.4773 52.6294 25.6907 53.0987C26.1387 52.5867 26.5867 52.0961 26.928 51.7121C26.416 51.7121 25.7973 51.7121 25.0933 51.7121Z" fill="#929292"/>
<path d="M38.8747 16.4265C38.5974 16.6612 38.3627 16.8532 38.1067 17.0452C38.0427 17.0879 37.9361 17.0879 37.8721 17.0452C37.6161 16.9172 37.3387 16.7679 37.1041 16.5972C36.9974 16.5332 36.9121 16.5332 36.8054 16.6185C36.3147 17.0239 35.8241 17.4292 35.3334 17.8345C35.2267 17.9199 35.2054 18.0052 35.2481 18.1332C35.3334 18.3892 35.4187 18.6665 35.5041 18.9225C35.5681 19.0719 35.5467 19.1572 35.4187 19.2425C35.1841 19.4132 34.9494 19.6052 34.6934 19.8185C34.5014 19.2212 34.3094 18.6665 34.1174 18.1119C33.6907 16.8532 33.2854 15.5945 32.8587 14.3359C32.7947 14.1652 32.8161 14.0585 32.9654 13.9519C33.2001 13.7812 33.3921 13.4825 33.6267 13.4612C33.8614 13.4399 34.1174 13.6959 34.3734 13.8239C35.7814 14.6132 37.1894 15.4239 38.5974 16.2132C38.6827 16.3199 38.7467 16.3625 38.8747 16.4265ZM34.1814 14.9759C34.4161 15.6585 34.6081 16.2772 34.8214 16.9172C35.2054 16.5972 35.5681 16.2985 35.9521 15.9785C35.3547 15.6372 34.8001 15.3385 34.1814 14.9759Z" fill="#929292"/>
<path d="M25.9892 46.9973C25.7119 46.7839 25.4559 46.5706 25.1999 46.3786C25.9892 44.9493 25.8826 43.8826 24.9226 43.2426C24.1119 42.7093 22.9386 42.8799 22.3412 43.6479C21.6372 44.5226 21.8719 45.6319 23.0026 46.6986C22.7892 46.9546 22.5972 47.2319 22.3839 47.4879C21.2106 46.7626 20.7626 45.5039 20.9332 44.2239C21.1039 43.0506 22.0426 42.1119 23.3012 41.8986C24.6239 41.6639 25.7972 42.2186 26.4372 43.3919C27.0559 44.5439 26.8852 46.0799 25.9892 46.9973Z" fill="#929292"/>
<path d="M69.1679 13.5894C69.2746 13.9094 69.3812 14.2294 69.4879 14.5494C68.3572 15.104 67.0986 14.912 66.0746 14.0587C65.0932 13.2694 64.8159 11.968 65.3066 10.7734C65.8399 9.47202 66.9492 8.78935 68.3786 8.91735C69.5946 9.02402 70.8106 10.048 71.0666 11.2427C70.7466 11.3494 70.4479 11.456 70.1066 11.584C69.8292 10.8587 69.4026 10.2827 68.6346 10.048C68.1652 9.89869 67.7172 9.94135 67.2692 10.1334C66.4159 10.5387 65.9466 11.6267 66.2666 12.5014C66.6292 13.568 67.6959 13.9734 69.1679 13.5894Z" fill="#929292"/>
<path d="M55.664 69.6106C55.408 69.8239 55.152 70.0372 54.896 70.2719C54.7467 70.1439 54.6187 69.9946 54.4907 69.8879C53.5947 69.1412 52.3573 69.2052 51.6533 70.0372C51.0773 70.6986 51.056 71.7866 51.5893 72.4906C52.1227 73.1732 53.1893 73.4292 54 73.0239C54.256 72.8959 54.4907 72.7252 54.768 72.5332C54.9813 72.7679 55.1947 73.0239 55.408 73.2799C54.8107 74.1119 53.296 74.4746 52.08 74.0906C50.9067 73.7066 50.1387 72.6399 50.1387 71.3386C50.1387 69.9519 50.8853 68.9066 52.1653 68.5012C53.4027 68.0532 54.8747 68.5226 55.664 69.6106Z" fill="#929292"/>
<path d="M29.3813 20.5013C29.2107 19.7333 29.04 19.0506 28.8907 18.3466C28.8693 18.2186 28.912 18.0693 28.976 17.9626C29.168 17.6853 29.4027 17.4293 29.6373 17.1306C29.7653 17.6426 29.872 18.1119 29.9787 18.5813C30.0853 19.0293 30.192 19.4986 30.2987 19.9466C30.3413 20.1813 30.448 20.2239 30.6827 20.2453C31.7707 20.3093 32.8587 20.3946 33.9467 20.4799C33.9893 20.4799 34.0533 20.5013 34.1387 20.5013C33.8827 20.8213 33.648 21.1199 33.392 21.4186C33.3493 21.4826 33.2213 21.4826 33.136 21.4826C32.304 21.4186 31.4507 21.3759 30.6187 21.3119C30.5547 21.3119 30.4907 21.3119 30.3413 21.2906C31.0027 21.8239 31.6213 22.3359 32.2613 22.8479C32.0267 23.1466 31.8133 23.4026 31.5787 23.7013C30.128 22.5279 28.6773 21.3546 27.2053 20.1813C27.44 19.9039 27.6533 19.6266 27.888 19.3279C28.3787 19.6906 28.8693 20.0746 29.3813 20.5013Z" fill="#929292"/>
<path d="M42.1174 71.7439C41.1788 71.3172 40.2614 70.8906 39.3228 70.4639C40.1121 68.7572 40.8801 67.0719 41.6694 65.3652C42.6081 65.7919 43.5254 66.2186 44.4641 66.6452C44.3148 66.9866 44.1654 67.2852 44.0161 67.6052C43.3974 67.3279 42.8214 67.0506 42.2028 66.7732C42.0748 67.0719 41.9254 67.3706 41.7761 67.6692C42.3948 67.9466 42.9708 68.2239 43.5894 68.5012C43.4401 68.8212 43.3121 69.1199 43.1628 69.4399C42.5441 69.1626 41.9681 68.8852 41.3494 68.6079C41.1361 69.0559 40.9441 69.4826 40.7308 69.9306C41.3281 70.2079 41.9254 70.4852 42.5441 70.7626C42.4161 71.1039 42.2668 71.4026 42.1174 71.7439Z" fill="#929292"/>
<path d="M72.5386 62.2934C73.0932 61.8454 73.5839 61.3761 74.1386 60.9921C74.8212 60.5228 75.5679 60.6721 76.1226 61.2908C76.6772 61.9094 76.7199 62.6988 76.1866 63.3174C75.9946 63.5521 75.7386 63.7441 75.4826 63.9788C76.0372 64.5974 76.5492 65.1734 77.0826 65.7708C76.8266 66.0054 76.5706 66.2401 76.2719 66.4961C75.0559 65.1094 73.8186 63.7228 72.5386 62.2934ZM74.8852 63.2961C75.0559 63.0828 75.2266 62.8908 75.3759 62.6988C75.5679 62.4641 75.5466 62.2081 75.3546 61.9948C75.1626 61.7814 74.9279 61.7388 74.6719 61.8881C74.4586 62.0161 74.2666 62.1868 74.0532 62.3574C74.3306 62.6774 74.5866 62.9334 74.8852 63.2961Z" fill="#929292"/>
<path d="M44.9121 12.2454C45.1681 11.968 45.3814 11.7334 45.6161 11.4987C45.8081 11.6267 45.9574 11.7547 46.1494 11.8614C46.4054 12.0107 46.6828 12.0107 46.9601 11.84C47.3014 11.6054 47.3441 11.2214 47.0028 10.9654C46.8108 10.816 46.5974 10.7307 46.3841 10.624C46.0214 10.4534 45.6374 10.2827 45.2748 10.0907C45.1681 10.048 45.0828 9.98402 44.9974 9.92002C44.3361 9.49335 44.1014 8.87469 44.3148 8.23469C44.5494 7.55202 45.2961 7.10402 46.0214 7.18935C46.4481 7.23202 46.8321 7.42402 47.2161 7.68002C47.0241 7.97869 46.8321 8.27735 46.6614 8.53335C46.4481 8.42669 46.2561 8.29869 46.0641 8.25602C45.9148 8.21335 45.7228 8.23469 45.5734 8.29869C45.2534 8.42669 45.2108 8.76802 45.5094 8.96002C45.8081 9.13069 46.1068 9.28002 46.4268 9.42935C46.7468 9.60002 47.0881 9.72802 47.4081 9.92002C48.0908 10.3254 48.4108 10.9654 48.2828 11.6694C48.1761 12.3094 47.6214 12.8214 46.8748 12.9707C46.0641 13.1414 45.4668 12.8214 44.9121 12.2454Z" fill="#929292"/>
<path d="M56.1973 10.6026C56.5173 10.4533 56.8373 10.304 57.1359 10.176C57.2426 10.3466 57.2853 10.5173 57.4133 10.624C57.5839 10.7733 57.7759 10.9226 57.9893 11.008C58.2239 11.0933 58.4586 10.9866 58.6079 10.752C58.7573 10.5386 58.6933 10.3253 58.5439 10.1333C58.3733 9.89864 58.1599 9.6853 57.9679 9.47197C57.6906 9.15197 57.3919 8.8533 57.1359 8.51197C56.6879 7.91464 56.6666 7.2533 57.0506 6.76264C57.4559 6.2293 58.1813 6.01597 58.8639 6.25064C59.3759 6.4213 59.6959 6.8053 60.0159 7.2533C59.7386 7.4453 59.4399 7.65864 59.1626 7.85064C59.0773 7.72264 58.9919 7.59464 58.9066 7.5093C58.7786 7.40264 58.6506 7.27464 58.5013 7.21064C58.3093 7.1253 58.0746 7.14664 57.9466 7.33864C57.7973 7.53064 57.8826 7.72264 58.0319 7.87197C58.4159 8.29864 58.8213 8.7253 59.2053 9.15197C59.4826 9.45064 59.6959 9.79197 59.7599 10.1973C59.9093 11.4133 58.9066 12.2666 57.6479 11.968C56.8799 11.7973 56.4746 11.3066 56.1973 10.6026Z" fill="#929292"/>
<path d="M83.3119 41.6426C83.4186 41.7066 83.4826 41.7492 83.5679 41.8132C84.2506 42.2826 84.9546 42.7306 85.6159 43.2426C86.0639 43.6052 86.5546 43.7332 87.1093 43.7972C87.6213 43.8399 88.1119 43.9252 88.6453 43.9892C88.6026 44.3519 88.5599 44.6932 88.5173 45.0559C88.0693 44.9919 87.6213 44.9492 87.1946 44.8852C86.8959 44.8426 86.5973 44.7999 86.2773 44.7572C86.1493 44.7359 85.9999 44.7786 85.8719 44.8212C84.9119 45.1626 83.9733 45.5039 83.0133 45.8452C82.9279 45.8666 82.8426 45.9092 82.7146 45.9519C82.7573 45.5892 82.7999 45.2479 82.8639 44.9066C82.8853 44.8426 82.9706 44.7786 83.0559 44.7359C83.6106 44.5226 84.1653 44.3306 84.7413 44.1172C84.8053 44.0959 84.8693 44.0532 84.9973 44.0106C84.7413 43.8186 84.5066 43.6692 84.2719 43.4986C84.0159 43.3279 83.7599 43.1146 83.4826 42.9652C83.2053 42.8159 83.1199 42.6239 83.2053 42.3252C83.2479 42.1332 83.2693 41.8986 83.3119 41.6426Z" fill="#929292"/>
<path d="M80.0908 20.5013C80.7308 20.3733 81.3494 20.288 81.9681 20.1386C82.2028 20.096 82.3734 20.1173 82.5014 20.3306C82.6294 20.544 82.8001 20.736 82.9921 20.9706C82.5868 21.056 82.2454 21.12 81.8828 21.184C81.1574 21.312 80.4321 21.44 79.7068 21.5893C79.5574 21.6106 79.4081 21.6746 79.3014 21.7813C78.7254 22.208 78.1494 22.656 77.5734 23.1253C77.3601 22.848 77.1468 22.5706 76.9121 22.272C77.2108 22.0373 77.4668 21.8026 77.7654 21.6106C78.5761 21.12 79.0881 20.416 79.4081 19.5413C79.6428 18.944 79.9414 18.368 80.2188 17.7706C80.2614 17.6853 80.3041 17.6213 80.3468 17.5146C80.5814 17.8133 80.7948 18.0693 80.9868 18.3466C81.0294 18.4106 81.0081 18.5173 80.9654 18.6026C80.6881 19.2 80.4108 19.8186 80.1334 20.416C80.0908 20.4373 80.0908 20.4373 80.0908 20.5013Z" fill="#929292"/>
<path d="M35.6106 61.1415C35.3546 61.3975 35.1199 61.6534 34.8639 61.9308C34.6292 61.6748 34.3946 61.4401 34.1172 61.1415C33.0506 62.2508 32.0052 63.3388 30.9599 64.4268C30.6826 64.1495 30.4266 63.8934 30.1919 63.6588C31.2372 62.5921 32.3039 61.5041 33.3706 60.3948C33.1359 60.1815 32.9012 59.9894 32.6879 59.7974C32.9652 59.5201 33.2212 59.2641 33.4559 59.0508C34.1599 59.7121 34.8852 60.4375 35.6106 61.1415Z" fill="#929292"/>
<path d="M32.304 57.5787C32.0053 57.792 31.728 57.984 31.4293 58.1974C31.2373 57.92 31.0453 57.6427 30.832 57.3654C29.5946 58.24 28.3573 59.0934 27.0986 59.968C26.8853 59.6694 26.6933 59.392 26.48 59.072C27.7173 58.1974 28.9546 57.344 30.2133 56.4694C30.0213 56.192 29.8506 55.936 29.6373 55.6587C29.936 55.4454 30.2133 55.2534 30.512 55.04C31.1093 55.872 31.7066 56.7254 32.304 57.5787Z" fill="#929292"/>
<path d="M74.288 19.4774C74.0106 19.2214 73.7546 18.9868 73.4773 18.7308C74.5013 17.6001 75.5253 16.4908 76.5493 15.3814C76.3146 15.1681 76.08 14.9548 75.824 14.6988C76.0586 14.4428 76.2933 14.1868 76.5493 13.9094C77.3173 14.6134 78.064 15.2961 78.8533 16.0214C78.6186 16.2774 78.384 16.5334 78.128 16.8108C77.872 16.5761 77.6373 16.3628 77.3813 16.1281C76.336 17.2588 75.3333 18.3681 74.288 19.4774Z" fill="#929292"/>
<path d="M34.2026 67.2427C35.2906 65.7067 36.3573 64.192 37.4453 62.656C37.744 62.8693 38.0213 63.0613 38.32 63.2747C37.4453 64.5333 36.5706 65.7493 35.6746 67.008C36.1013 67.3067 36.5066 67.6053 36.9333 67.904C36.7413 68.1813 36.5493 68.4587 36.336 68.736C35.632 68.2453 34.928 67.7547 34.2026 67.2427Z" fill="#929292"/>
<path d="M73.648 11.7974C73.9467 12.0107 74.224 12.2027 74.5227 12.416C73.456 13.952 72.3893 15.488 71.3227 17.0454C71.024 16.832 70.7467 16.64 70.448 16.4267C71.5147 14.8694 72.5813 13.3547 73.648 11.7974Z" fill="#929292"/>
<path d="M74.2453 32.9814C74.6933 33.1307 75.0773 33.2801 75.4613 33.4081C75.9946 33.5787 76.464 33.8774 76.8906 34.2401C77.0826 34.4107 77.296 34.5601 77.488 34.7307C77.7653 34.9654 77.7866 35.3281 77.552 35.5841C77.232 35.9254 76.8906 36.2454 76.5493 36.5654C76.1866 36.9067 75.7813 37.0561 75.2693 37.0561C72.5813 37.0561 69.9146 37.0987 67.2266 37.0987C67.1413 37.0987 67.056 37.0987 66.9493 37.0987C66.8853 37.5041 66.8426 37.9094 66.7573 38.3147C66.3306 40.7894 65.5626 43.1787 64.56 45.4827C63.9413 46.9121 63.28 48.3414 62.576 49.7067C61.9786 50.8587 61.6373 52.0747 61.4666 53.3547C61.424 53.7387 61.3173 54.1227 61.3173 54.5281C61.3173 55.1894 61.4026 55.8294 61.424 56.4907C61.4453 57.1521 61.5306 57.8347 61.4026 58.4747C61.1253 60.0107 60.1653 61.0134 58.6933 61.5254C57.84 61.8241 56.944 61.9307 56.048 61.9094C54.4906 61.8667 52.9333 61.7814 51.376 61.6747C50.9066 61.6321 50.416 61.4401 49.968 61.2267C48.432 60.5014 47.664 58.9867 48.0053 57.3441C48.56 54.6134 48.0906 52.0534 46.8746 49.6001C46.4053 48.6401 45.8506 47.7227 45.3813 46.7841C44.464 44.9707 43.8453 43.0294 43.2266 41.1094C43.184 40.9387 43.12 40.7894 43.0773 40.6187C42.5653 38.9547 42.4586 39.1681 42.5866 37.0774C42.3306 37.0987 42.0746 37.1414 41.8186 37.1627C40.3253 37.2907 38.8106 37.4401 37.3173 37.5467C36.016 37.6321 34.736 37.3547 33.4986 36.9707C32.9013 36.7787 32.4746 36.3734 32.1546 35.8401C31.8986 35.3921 31.9413 34.9654 32.2613 34.5601C32.6026 34.1121 33.0506 33.8134 33.584 33.6214C34.1173 33.4081 34.6506 33.2161 35.184 33.0241C35.2693 33.0027 35.3333 32.9601 35.3973 32.8961C34.736 32.8321 34.0746 32.7681 33.4133 32.7041C31.152 32.4481 28.8906 32.2987 26.6506 31.9147C22.576 31.2534 19.5253 29.0347 17.4346 25.4721C16.2613 23.4881 15.2586 21.4187 14.3626 19.3067C13.872 18.1334 13.2746 17.0667 12.4426 16.1067C11.3546 14.8267 9.94663 14.1441 8.30396 13.8881C6.76796 13.6321 5.23196 13.7174 3.67463 13.8667C3.50396 13.8881 3.33329 13.9094 3.16263 13.9094C2.88529 13.9307 2.65063 13.8241 2.54396 13.5894C2.43729 13.3547 2.45863 13.1201 2.62929 12.9281C3.73863 11.7121 5.06129 10.8161 6.70396 10.6241C11.2693 10.1334 15.0666 11.5201 17.7973 15.3601C19.0346 17.1094 20.1866 18.9227 21.36 20.7361C22.512 22.4854 23.9626 23.8721 25.8826 24.7254C27.248 25.3441 28.6773 25.6427 30.1706 25.6641C34.1173 25.7494 38.064 25.6641 42.0106 25.4721C43.312 25.4081 44.592 25.3441 45.8933 25.2587C46.5546 25.2161 47.1946 24.9601 47.792 24.6614C48.4106 24.3627 49.008 24.0214 49.6053 23.7014C50.7786 23.0614 52.016 22.5494 53.36 22.3361C55.0453 22.0587 56.6666 22.3147 58.224 22.9334C58.9066 23.2107 59.5893 23.5307 60.2506 23.8721C61.7013 24.5974 63.216 25.1947 64.8373 25.3867C65.9253 25.5147 67.0133 25.5361 68.1013 25.5787C71.5573 25.6854 75.0346 25.6427 78.4906 25.5147C79.5146 25.4721 80.56 25.4507 81.584 25.3227C83.3333 25.1094 84.8053 24.3201 86.0853 23.1467C86.9813 22.3147 87.7066 21.3547 88.368 20.3307C89.5413 18.5814 90.6933 16.8107 91.9093 15.0827C93.7226 12.5014 96.2613 11.0934 99.3546 10.6667C100.677 10.4747 101.979 10.4321 103.301 10.7307C104.752 11.0507 105.925 11.8187 106.864 12.9494C107.035 13.1627 107.099 13.3974 106.971 13.6321C106.843 13.8881 106.629 13.9734 106.352 13.9521C105.605 13.8667 104.837 13.7814 104.091 13.7174C101.083 13.4401 98.48 14.2507 96.5386 16.6827C96.112 17.2161 95.792 17.8134 95.4933 18.4321C94.5546 20.3947 93.7013 22.3787 92.7413 24.3201C90.864 28.1814 87.792 30.6134 83.6533 31.7654C82.16 32.1921 80.624 32.3627 79.0666 32.4907C77.488 32.6187 75.9306 32.7894 74.352 32.9601C74.3733 32.9387 74.352 32.9601 74.2453 32.9814ZM77.1253 35.2214C76.4426 34.6027 75.76 34.0907 74.9066 33.8347C73.9466 33.5574 73.008 33.2374 72.048 32.9387C71.9626 32.9174 71.8986 32.8747 71.7493 32.8321C71.856 32.8107 71.8986 32.7894 71.92 32.7894C73.968 32.3627 76.0373 32.1281 78.1066 31.9787C79.6426 31.8507 81.1786 31.7654 82.6933 31.4241C87.024 30.4427 90.3093 28.0747 92.2506 24.0427C93.1893 22.1014 94.064 20.1601 94.96 18.1974C95.536 16.9174 96.3466 15.8081 97.456 14.9334C99.6106 13.2481 102.085 12.8427 104.731 13.2267C105.285 13.3121 105.84 13.3761 106.395 13.4401C106.395 13.3547 106.395 13.3334 106.395 13.3334C106.373 13.3121 106.352 13.2694 106.331 13.2481C105.477 12.2454 104.411 11.5841 103.109 11.3067C101.936 11.0507 100.763 11.1147 99.5893 11.2641C96.624 11.6481 94.192 12.9494 92.4213 15.4027C91.6746 16.4267 90.992 17.4934 90.2666 18.5387C89.4346 19.7547 88.6453 21.0347 87.7493 22.2081C86.4053 23.9787 84.6773 25.2161 82.5013 25.7707C81.4133 26.0481 80.3253 26.0481 79.216 26.0907C75.1626 26.2401 71.1306 26.2827 67.0773 26.1547C65.584 26.1121 64.112 26.0054 62.6826 25.5361C61.4666 25.1521 60.336 24.5974 59.184 24.0214C57.968 23.4027 56.7093 22.9761 55.344 22.8694C53.7653 22.7414 52.2933 23.0614 50.8853 23.7441C49.9253 24.1921 49.008 24.7254 48.0693 25.1947C47.3653 25.5574 46.6186 25.8347 45.808 25.8774C44.592 25.9627 43.376 26.0267 42.16 26.0694C38.5333 26.2401 34.9066 26.3254 31.28 26.2827C29.936 26.2614 28.592 26.2187 27.2693 25.8561C24.496 25.0881 22.384 23.4241 20.8266 21.0347C19.7173 19.2214 18.5226 17.4294 17.328 15.6374C16.24 14.0161 14.7893 12.8214 12.9973 12.0534C11.4186 11.3707 9.75463 11.0507 8.04796 11.0721C6.19196 11.0934 4.61329 11.7547 3.31196 13.0987C3.24796 13.1627 3.20529 13.2267 3.09863 13.3334C3.22663 13.3121 3.31196 13.3121 3.39729 13.3121C4.99729 13.1414 6.61863 13.0561 8.21863 13.2907C10.1173 13.5467 11.7386 14.3574 12.9973 15.8507C13.7866 16.8107 14.4053 17.8561 14.896 18.9867C15.8133 21.0774 16.7946 23.1467 17.9466 25.1094C19.504 27.7761 21.68 29.7174 24.6026 30.7627C26.0746 31.2961 27.6106 31.4881 29.168 31.6374C31.7706 31.8934 34.3733 32.1707 36.976 32.4267C37.2106 32.4481 37.4453 32.4907 37.68 32.5121C37.3813 32.7254 37.0613 32.8961 36.7413 33.0241C35.7813 33.4081 34.8213 33.7494 33.8613 34.1334C33.456 34.2827 33.0933 34.5174 32.7946 34.8587C32.56 35.1361 32.5386 35.3281 32.7306 35.6267C32.9653 35.9894 33.264 36.2881 33.6906 36.4161C34.928 36.8001 36.1653 37.0774 37.4666 36.9707C39.0026 36.8427 40.5386 36.6934 42.0746 36.5441C42.4586 36.5014 42.8426 36.4587 43.2693 36.4161C43.248 36.8427 43.2266 37.2267 43.184 37.6107C43.12 38.2721 43.1626 38.9334 43.3973 39.5734C43.6746 40.3201 43.888 41.0881 44.144 41.8561C44.848 44.0747 45.68 46.2294 46.8746 48.2347C47.1946 48.7681 47.4506 49.3227 47.7066 49.8774C48.7733 52.2667 49.1573 54.7201 48.6666 57.3014C48.3893 58.7307 48.88 59.8614 49.9893 60.5441C50.5013 60.8641 51.056 61.0561 51.6533 61.1201C53.2533 61.2907 54.8533 61.3974 56.4533 61.3121C57.1146 61.2694 57.776 61.1841 58.416 61.0134C59.8026 60.6294 60.72 59.7121 60.912 58.2401C60.9973 57.6214 60.8906 56.9814 60.8693 56.3627C60.848 55.7654 60.7626 55.1467 60.7626 54.5494C60.7626 54.1014 60.8693 53.6321 60.9333 53.1841C61.104 51.9254 61.424 50.7307 62.0213 49.5787C63.0666 47.5734 64.0053 45.5041 64.7946 43.3707C65.584 41.2161 66.1813 38.9974 66.3946 36.7147C66.416 36.5441 66.5013 36.5227 66.6293 36.5227C67.312 36.5227 68.016 36.5441 68.6986 36.5227C70.8533 36.5014 73.008 36.4801 75.184 36.4801C75.6533 36.4801 75.9946 36.3094 76.3146 35.9894C76.5706 35.7547 76.848 35.4987 77.1253 35.2214Z" fill="#231F20"/>
<path d="M61.0612 72.5761C59.9946 72.5761 59.2266 71.7441 59.2266 70.5921C59.2266 69.5681 60.0372 68.7574 61.0826 68.7787C62.0852 68.7787 62.9172 69.6747 62.9172 70.7414C62.9172 71.7867 62.1066 72.5761 61.0612 72.5761Z" fill="#231F20"/>
<path d="M80.3894 59.0294C80.0267 58.4748 79.664 57.9201 79.28 57.3228C79.9627 57.4934 80.6027 57.6428 81.2427 57.8134C80.9654 58.2401 80.688 58.6241 80.3894 59.0294Z" fill="#231F20"/>
<path d="M52.9974 9.53608C52.4854 9.57875 52.0374 9.62142 51.5254 9.64275C51.7174 8.98142 51.9094 8.38408 52.1014 7.70142C52.4214 8.34142 52.6987 8.91742 52.9974 9.53608Z" fill="#231F20"/>
<path d="M25.0933 51.7119C25.7973 51.7119 26.4159 51.7119 26.9279 51.7119C26.5653 52.1172 26.1386 52.6079 25.6906 53.0986C25.4773 52.6292 25.3066 52.2026 25.0933 51.7119Z" fill="#231F20"/>
<path d="M34.1814 14.9761C34.8001 15.3174 35.3547 15.6374 35.9521 15.9787C35.5681 16.2987 35.2054 16.5974 34.8214 16.9174C34.6081 16.2774 34.3947 15.6587 34.1814 14.9761Z" fill="#231F20"/>
<path d="M74.8852 63.2961C74.5652 62.9334 74.3306 62.6774 74.0532 62.3788C74.2666 62.2081 74.4586 62.0374 74.6719 61.9094C74.9279 61.7388 75.1626 61.8028 75.3546 62.0161C75.5466 62.2294 75.5466 62.4854 75.3759 62.7201C75.2266 62.8908 75.0772 63.0828 74.8852 63.2961Z" fill="#231F20"/>
<path d="M77.1253 35.2213C76.848 35.4986 76.5706 35.7546 76.3146 36.0106C75.9946 36.3306 75.6533 36.5013 75.184 36.5013C73.0293 36.5013 70.8746 36.544 68.6986 36.544C68.016 36.544 67.312 36.544 66.6293 36.544C66.5013 36.544 66.416 36.5653 66.3946 36.7359C66.1813 39.0399 65.584 41.2373 64.7946 43.3919C64.0053 45.5253 63.0666 47.5733 62.0213 49.5999C61.424 50.7306 61.104 51.9466 60.9333 53.2053C60.8693 53.6533 60.7626 54.1226 60.7626 54.5706C60.7626 55.1679 60.8266 55.7653 60.8693 56.3839C60.8906 57.0026 60.9973 57.664 60.912 58.2613C60.72 59.7119 59.824 60.6293 58.416 61.0346C57.776 61.2053 57.1146 61.312 56.4533 61.3333C54.8533 61.4186 53.2533 61.312 51.6533 61.1413C51.056 61.0773 50.5013 60.8853 49.9893 60.5653C48.8586 59.8613 48.3893 58.752 48.6666 57.3226C49.1573 54.7413 48.7733 52.2666 47.7066 49.8986C47.4506 49.3439 47.1946 48.7679 46.8746 48.2559C45.68 46.2506 44.848 44.096 44.144 41.8773C43.9093 41.1093 43.6746 40.3413 43.3973 39.5946C43.1626 38.9546 43.1413 38.2933 43.184 37.6319C43.2266 37.2479 43.248 36.864 43.2693 36.4373C42.8426 36.4799 42.4586 36.5226 42.0746 36.5653C40.5386 36.7146 39.0026 36.8639 37.4666 36.9919C36.1653 37.0986 34.928 36.8 33.6906 36.4373C33.2853 36.3093 32.9653 36.0106 32.7306 35.648C32.5386 35.3493 32.56 35.1573 32.7946 34.8799C33.0933 34.5386 33.456 34.304 33.8613 34.1546C34.8213 33.792 35.7813 33.4293 36.7413 33.0453C37.0613 32.9173 37.36 32.7466 37.68 32.5333C37.4453 32.5119 37.2106 32.4693 36.976 32.448C34.3733 32.192 31.7706 31.9359 29.168 31.6586C27.632 31.5093 26.096 31.296 24.6026 30.784C21.68 29.7386 19.504 27.7973 17.9466 25.1306C16.7946 23.1466 15.8133 21.0986 14.896 19.008C14.4053 17.8773 13.7866 16.8106 12.9973 15.872C11.7386 14.3786 10.1173 13.5893 8.21863 13.312C6.61863 13.0986 4.9973 13.1626 3.3973 13.3333C3.31197 13.3333 3.24797 13.3546 3.09863 13.3546C3.18397 13.248 3.24797 13.184 3.31197 13.12C4.6133 11.776 6.19197 11.1146 8.04797 11.0933C9.77597 11.072 11.4186 11.392 12.9973 12.0746C14.7893 12.8426 16.24 14.0373 17.328 15.6586C18.5226 17.4293 19.7173 19.2213 20.8906 21.0346C22.448 23.424 24.56 25.0879 27.3333 25.8559C28.656 26.2186 30 26.2613 31.344 26.2826C34.9706 26.3253 38.5973 26.24 42.224 26.0693C43.44 26.0053 44.656 25.9626 45.872 25.8773C46.6826 25.8133 47.4293 25.536 48.1333 25.1946C49.072 24.7253 49.9893 24.192 50.9493 23.744C52.3573 23.0613 53.8506 22.7413 55.408 22.8693C56.7733 22.976 58.032 23.4026 59.248 24.0213C60.3786 24.5973 61.5306 25.1306 62.7466 25.5359C64.176 25.9839 65.648 26.1119 67.1413 26.1546C71.1946 26.2826 75.2266 26.2613 79.28 26.0906C80.368 26.048 81.4773 26.048 82.5653 25.7706C84.7413 25.216 86.4693 23.9573 87.8133 22.208C88.7093 21.0346 89.4986 19.776 90.3306 18.5386C91.056 17.4933 91.7386 16.4266 92.4853 15.4026C94.256 12.9706 96.688 11.648 99.6533 11.264C100.827 11.1146 102 11.072 103.173 11.3066C104.475 11.584 105.541 12.2453 106.395 13.248C106.416 13.2693 106.437 13.2906 106.459 13.3333C106.459 13.3546 106.459 13.3546 106.459 13.44C105.904 13.376 105.349 13.312 104.795 13.2266C102.149 12.8426 99.6746 13.2693 97.52 14.9333C96.4106 15.808 95.6 16.9173 95.024 18.1973C94.128 20.16 93.2533 22.1013 92.3146 24.0426C90.352 28.0746 87.088 30.4426 82.7573 31.424C81.2426 31.7653 79.7066 31.8719 78.1706 31.9786C76.1013 32.1493 74.032 32.3626 71.984 32.7893C71.9413 32.7893 71.92 32.8106 71.8133 32.8319C71.9626 32.8746 72.0266 32.9173 72.112 32.9386C73.0506 33.2373 74.0106 33.5573 74.9706 33.8346C75.7813 34.0906 76.4426 34.6026 77.1253 35.2213Z" fill="#929292"/>
</svg>
