<svg width="40" height="40" viewBox="0 0 40 40" fill="none" xmlns="http://www.w3.org/2000/svg">
<path opacity="0.2" d="M20 17.5C18.8875 17.5 17.7999 17.1701 16.8749 16.552C15.9499 15.9339 15.2289 15.0554 14.8032 14.0276C14.3774 12.9998 14.266 11.8688 14.4831 10.7776C14.7001 9.68648 15.2359 8.6842 16.0225 7.89753C16.8092 7.11086 17.8115 6.57513 18.9026 6.35809C19.9938 6.14104 21.1248 6.25244 22.1526 6.67818C23.1804 7.10392 24.0589 7.82489 24.677 8.74992C25.2951 9.67495 25.625 10.7625 25.625 11.875C25.625 13.3668 25.0324 14.7976 23.9775 15.8525C22.9226 16.9074 21.4918 17.5 20 17.5ZM29.375 21.25C28.2625 21.25 27.1749 21.5799 26.2499 22.198C25.3249 22.8161 24.6039 23.6946 24.1782 24.7224C23.7524 25.7502 23.641 26.8812 23.8581 27.9724C24.0751 29.0635 24.6109 30.0658 25.3975 30.8525C26.1842 31.6391 27.1865 32.1749 28.2776 32.3919C29.3688 32.609 30.4998 32.4976 31.5276 32.0718C32.5554 31.6461 33.4339 30.9251 34.052 30.0001C34.6701 29.0751 35 27.9875 35 26.875C35 25.3832 34.4074 23.9524 33.3525 22.8975C32.2976 21.8426 30.8668 21.25 29.375 21.25ZM10.625 21.25C9.51248 21.25 8.42495 21.5799 7.49992 22.198C6.57489 22.8161 5.85392 23.6946 5.42818 24.7224C5.00244 25.7502 4.89104 26.8812 5.10809 27.9724C5.32513 29.0635 5.86086 30.0658 6.64753 30.8525C7.4342 31.6391 8.43648 32.1749 9.52762 32.3919C10.6188 32.609 11.7498 32.4976 12.7776 32.0718C13.8054 31.6461 14.6839 30.9251 15.302 30.0001C15.9201 29.0751 16.25 27.9875 16.25 26.875C16.25 25.3832 15.6574 23.9524 14.6025 22.8975C13.5476 21.8426 12.1168 21.25 10.625 21.25Z" fill="#C5A063"/>
<path d="M26.875 11.875C26.875 10.5153 26.4718 9.18605 25.7164 8.05546C24.9609 6.92487 23.8872 6.04368 22.631 5.52333C21.3747 5.00298 19.9924 4.86683 18.6588 5.1321C17.3251 5.39738 16.1001 6.05216 15.1386 7.01364C14.1772 7.97513 13.5224 9.20014 13.2571 10.5338C12.9918 11.8674 13.128 13.2497 13.6483 14.506C14.1687 15.7622 15.0499 16.8359 16.1805 17.5914C17.311 18.3468 18.6403 18.75 20 18.75C21.8227 18.7479 23.5702 18.0229 24.8591 16.7341C26.1479 15.4452 26.8729 13.6977 26.875 11.875ZM20 16.25C19.1347 16.25 18.2888 15.9934 17.5694 15.5127C16.8499 15.032 16.2892 14.3487 15.958 13.5492C15.6269 12.7498 15.5403 11.8701 15.7091 11.0215C15.8779 10.1728 16.2946 9.39327 16.9064 8.78141C17.5183 8.16956 18.2978 7.75288 19.1465 7.58407C19.9951 7.41526 20.8748 7.5019 21.6742 7.83303C22.4737 8.16416 23.157 8.72492 23.6377 9.44438C24.1184 10.1638 24.375 11.0097 24.375 11.875C24.375 13.0353 23.9141 14.1481 23.0936 14.9686C22.2731 15.7891 21.1603 16.25 20 16.25ZM29.375 20C28.0153 20 26.686 20.4032 25.5555 21.1587C24.4249 21.9141 23.5437 22.9878 23.0233 24.2441C22.503 25.5003 22.3668 26.8826 22.6321 28.2162C22.8974 29.5499 23.5522 30.7749 24.5136 31.7364C25.4751 32.6978 26.7001 33.3526 28.0338 33.6179C29.3674 33.8832 30.7497 33.747 32.006 33.2267C33.2622 32.7063 34.3359 31.8251 35.0914 30.6945C35.8468 29.564 36.25 28.2347 36.25 26.875C36.2479 25.0523 35.5229 23.3048 34.2341 22.0159C32.9452 20.7271 31.1977 20.0021 29.375 20ZM29.375 31.25C28.5097 31.25 27.6638 30.9934 26.9444 30.5127C26.2249 30.0319 25.6642 29.3487 25.333 28.5492C25.0019 27.7498 24.9153 26.8701 25.0841 26.0215C25.2529 25.1728 25.6696 24.3933 26.2814 23.7814C26.8933 23.1696 27.6728 22.7529 28.5215 22.5841C29.3701 22.4153 30.2498 22.5019 31.0492 22.833C31.8487 23.1642 32.5319 23.7249 33.0127 24.4444C33.4934 25.1638 33.75 26.0097 33.75 26.875C33.75 28.0353 33.2891 29.1481 32.4686 29.9686C31.6481 30.7891 30.5353 31.25 29.375 31.25ZM10.625 20C9.26526 20 7.93605 20.4032 6.80546 21.1587C5.67487 21.9141 4.79368 22.9878 4.27333 24.2441C3.75298 25.5003 3.61683 26.8826 3.8821 28.2162C4.14738 29.5499 4.80216 30.7749 5.76364 31.7364C6.72513 32.6978 7.95014 33.3526 9.28376 33.6179C10.6174 33.8832 11.9997 33.747 13.256 33.2267C14.5122 32.7063 15.5859 31.8251 16.3414 30.6945C17.0968 29.564 17.5 28.2347 17.5 26.875C17.4979 25.0523 16.7729 23.3048 15.4841 22.0159C14.1952 20.7271 12.4477 20.0021 10.625 20ZM10.625 31.25C9.75971 31.25 8.91385 30.9934 8.19438 30.5127C7.47492 30.0319 6.91416 29.3487 6.58303 28.5492C6.2519 27.7498 6.16526 26.8701 6.33407 26.0215C6.50288 25.1728 6.91956 24.3933 7.53141 23.7814C8.14327 23.1696 8.92282 22.7529 9.77148 22.5841C10.6201 22.4153 11.4998 22.5019 12.2992 22.833C13.0987 23.1642 13.782 23.7249 14.2627 24.4444C14.7434 25.1638 15 26.0097 15 26.875C15 28.0353 14.5391 29.1481 13.7186 29.9686C12.8981 30.7891 11.7853 31.25 10.625 31.25Z" fill="#C5A063"/>
</svg>
