<svg id="icon" width="40" height="40" viewBox="0 0 40 40" fill="none" xmlns="http://www.w3.org/2000/svg">
<path opacity="0.2" d="M35 20C35.0022 22.1036 34.5609 24.1841 33.7047 26.1056C32.8486 28.0271 31.5968 29.7465 30.0313 31.1516C29.09 29.3002 27.6546 27.7455 25.884 26.6597C24.1135 25.5739 22.0769 24.9995 20 25C21.2361 25 22.4445 24.6335 23.4723 23.9467C24.5001 23.2599 25.3012 22.2838 25.7743 21.1418C26.2473 19.9998 26.3711 18.7431 26.1299 17.5307C25.8888 16.3183 25.2935 15.2047 24.4194 14.3306C23.5453 13.4565 22.4317 12.8613 21.2193 12.6201C20.0069 12.379 18.7503 12.5027 17.6082 12.9758C16.4662 13.4488 15.4901 14.2499 14.8033 15.2777C14.1166 16.3055 13.75 17.5139 13.75 18.75C13.75 20.4076 14.4085 21.9973 15.5806 23.1694C16.7527 24.3415 18.3424 25 20 25C17.9231 24.9995 15.8865 25.5739 14.116 26.6597C12.3454 27.7455 10.91 29.3002 9.96875 31.1516C8.10977 29.4795 6.69827 27.3692 5.86259 25.0126C5.02692 22.6561 4.79358 20.128 5.18381 17.6583C5.57403 15.1885 6.57543 12.8556 8.09695 10.8714C9.61847 8.88732 11.6118 7.31501 13.8958 6.2975C16.1797 5.27999 18.6818 4.84955 21.1745 5.04532C23.6672 5.2411 26.0714 6.05687 28.1684 7.41847C30.2655 8.78007 31.989 10.6443 33.1821 12.8416C34.3752 15.0389 35.0001 17.4997 35 20Z" fill="#C5A063"/>
<path d="M26.2504 8.75002C26.2504 8.4185 26.3821 8.10055 26.6165 7.86613C26.8509 7.63171 27.1689 7.50002 27.5004 7.50002H30.0004V5.00002C30.0004 4.6685 30.1321 4.35055 30.3665 4.11613C30.6009 3.88171 30.9189 3.75002 31.2504 3.75002C31.5819 3.75002 31.8999 3.88171 32.1343 4.11613C32.3687 4.35055 32.5004 4.6685 32.5004 5.00002V7.50002H35.0004C35.3319 7.50002 35.6499 7.63171 35.8843 7.86613C36.1187 8.10055 36.2504 8.4185 36.2504 8.75002C36.2504 9.08154 36.1187 9.39948 35.8843 9.6339C35.6499 9.86832 35.3319 10 35.0004 10H32.5004V12.5C32.5004 12.8315 32.3687 13.1495 32.1343 13.3839C31.8999 13.6183 31.5819 13.75 31.2504 13.75C30.9189 13.75 30.6009 13.6183 30.3665 13.3839C30.1321 13.1495 30.0004 12.8315 30.0004 12.5V10H27.5004C27.1689 10 26.8509 9.86832 26.6165 9.6339C26.3821 9.39948 26.2504 9.08154 26.2504 8.75002ZM36.0254 17.2938C36.5965 20.6884 36.0739 24.1767 34.5333 27.255C32.9926 30.3333 30.5135 32.8423 27.4538 34.4197C24.3942 35.9972 20.9125 36.5615 17.5113 36.0311C14.11 35.5008 10.9654 33.9033 8.53126 31.4692C6.09717 29.0351 4.49962 25.8904 3.96928 22.4892C3.43893 19.0879 4.00323 15.6062 5.5807 12.5466C7.15816 9.48697 9.66717 7.00785 12.7455 5.46716C15.8238 3.92648 19.312 3.40395 22.7067 3.97502C23.0311 4.0324 23.3198 4.21558 23.5099 4.48472C23.7001 4.75386 23.7762 5.08718 23.7218 5.41218C23.6675 5.73717 23.487 6.02756 23.2196 6.22016C22.9522 6.41276 22.6196 6.492 22.2942 6.44064C20.3225 6.10897 18.3022 6.21092 16.374 6.7394C14.4457 7.26789 12.6558 8.21021 11.1287 9.5008C9.60167 10.7914 8.3742 12.3992 7.53172 14.2124C6.68924 16.0256 6.25199 18.0006 6.25041 20C6.24744 23.3659 7.48455 26.615 9.72541 29.1266C11.1195 27.1064 13.0798 25.5435 15.3598 24.6344C14.1351 23.6698 13.2414 22.3475 12.803 20.8514C12.3646 19.3553 12.4034 17.7598 12.9138 16.2868C13.4243 14.8138 14.3811 13.5364 15.6511 12.6323C16.9212 11.7283 18.4414 11.2425 20.0004 11.2425C21.5594 11.2425 23.0796 11.7283 24.3497 12.6323C25.6198 13.5364 26.5765 14.8138 27.087 16.2868C27.5974 17.7598 27.6362 19.3553 27.1978 20.8514C26.7594 22.3475 25.8657 23.6698 24.641 24.6344C26.921 25.5435 28.8813 27.1064 30.2754 29.1266C32.5163 26.615 33.7534 23.3659 33.7504 20C33.7505 19.2315 33.6867 18.4643 33.5598 17.7063C33.531 17.5437 33.5348 17.377 33.5708 17.2158C33.6068 17.0547 33.6744 16.9023 33.7697 16.7674C33.865 16.6325 33.986 16.5179 34.1259 16.43C34.2657 16.3422 34.4216 16.283 34.5844 16.2557C34.7473 16.2285 34.9139 16.2338 35.0747 16.2713C35.2355 16.3088 35.3873 16.3778 35.5213 16.4743C35.6553 16.5709 35.7688 16.693 35.8554 16.8336C35.9419 16.9743 35.9997 17.1307 36.0254 17.2938ZM20.0004 23.75C20.9893 23.75 21.956 23.4568 22.7783 22.9074C23.6005 22.358 24.2414 21.5771 24.6198 20.6634C24.9982 19.7498 25.0973 18.7445 24.9043 17.7746C24.7114 16.8047 24.2352 15.9137 23.5359 15.2145C22.8367 14.5152 21.9458 14.039 20.9759 13.8461C20.006 13.6532 19.0006 13.7522 18.087 14.1306C17.1734 14.5091 16.3925 15.1499 15.8431 15.9722C15.2937 16.7944 15.0004 17.7611 15.0004 18.75C15.0004 20.0761 15.5272 21.3479 16.4649 22.2856C17.4026 23.2232 18.6743 23.75 20.0004 23.75ZM20.0004 33.75C23.0525 33.7531 26.0181 32.7356 28.4254 30.8594C27.5211 29.4451 26.2754 28.2813 24.803 27.4751C23.3307 26.6689 21.679 26.2464 20.0004 26.2464C18.3218 26.2464 16.6702 26.6689 15.1978 27.4751C13.7254 28.2813 12.4797 29.4451 11.5754 30.8594C13.9827 32.7356 16.9483 33.7531 20.0004 33.75Z" fill="#C5A063"/>
</svg>
