<svg id="icon" width="41" height="40" viewBox="0 0 41 40" fill="none" xmlns="http://www.w3.org/2000/svg">
<path opacity="0.2" d="M36.5835 15H4.0835L20.3335 5L36.5835 15Z" fill="#C5A063"/>
<path d="M4.0835 16.25H7.8335V26.25H5.3335C5.00198 26.25 4.68403 26.3817 4.44961 26.6161C4.21519 26.8505 4.0835 27.1684 4.0835 27.5C4.0835 27.8315 4.21519 28.1494 4.44961 28.3838C4.68403 28.6183 5.00198 28.75 5.3335 28.75H35.3335C35.665 28.75 35.983 28.6183 36.2174 28.3838C36.4518 28.1494 36.5835 27.8315 36.5835 27.5C36.5835 27.1684 36.4518 26.8505 36.2174 26.6161C35.983 26.3817 35.665 26.25 35.3335 26.25H32.8335V16.25H36.5835C36.8555 16.2497 37.1199 16.1607 37.3368 15.9965C37.5536 15.8324 37.711 15.6019 37.785 15.3402C37.8591 15.0785 37.8457 14.7998 37.747 14.5464C37.6484 14.293 37.4697 14.0786 37.2382 13.9359L20.9882 3.93589C20.7913 3.81483 20.5646 3.75073 20.3335 3.75073C20.1023 3.75073 19.8757 3.81483 19.6788 3.93589L3.42881 13.9359C3.19729 14.0786 3.01864 14.293 2.91995 14.5464C2.82126 14.7998 2.80793 15.0785 2.88197 15.3402C2.95601 15.6019 3.11338 15.8324 3.33022 15.9965C3.54706 16.1607 3.81152 16.2497 4.0835 16.25ZM10.3335 16.25H15.3335V26.25H10.3335V16.25ZM22.8335 16.25V26.25H17.8335V16.25H22.8335ZM30.3335 26.25H25.3335V16.25H30.3335V26.25ZM20.3335 6.46714L32.1679 13.75H8.49912L20.3335 6.46714ZM39.0835 32.5C39.0835 32.8315 38.9518 33.1494 38.7174 33.3838C38.483 33.6183 38.165 33.75 37.8335 33.75H2.8335C2.50198 33.75 2.18403 33.6183 1.94961 33.3838C1.71519 33.1494 1.5835 32.8315 1.5835 32.5C1.5835 32.1684 1.71519 31.8505 1.94961 31.6161C2.18403 31.3817 2.50198 31.25 2.8335 31.25H37.8335C38.165 31.25 38.483 31.3817 38.7174 31.6161C38.9518 31.8505 39.0835 32.1684 39.0835 32.5Z" fill="#C5A063"/>
</svg>
