<svg width="98" height="32" viewBox="0 0 98 32" fill="none" xmlns="http://www.w3.org/2000/svg">
<path d="M37.2623 3.3667V15.0702V16.7185V28.4279H35.5955V16.7182H4.69719V28.4275H3.03076V16.7182V15.0702V3.3667H4.69751V15.0702H35.5958V3.3667H37.2623ZM33.9323 3.3667H32.2656V11.7325H8.031V3.3667H6.36426V13.3805H33.9323V3.3667ZM11.3713 3.3667H9.72303V10.0363H11.3713V3.3667ZM30.5872 3.3667H28.9204V10.0363H30.5872V3.3667ZM6.36426 28.4275H8.031V20.062H32.2656V28.4279H33.9323V18.3953H6.36426V28.4275ZM28.9068 28.4275H30.5736V21.7395H28.9068V28.4275ZM9.70974 28.4275H11.3765V21.7395H9.70974V28.4275Z" fill="#7F7F7F"/>
<path d="M46.5241 3.36597V10.7348H45.0819V7.68188H42.0944V10.7348H40.6418V3.36597H42.0944V6.2925H45.0819V3.36597H46.5241Z" fill="#7F7F7F"/>
<path d="M52.4497 5.47119V10.7349H51.0917V10.1455C50.7758 10.6192 50.2285 10.8823 49.5232 10.8823C48.4072 10.8823 47.5337 10.1034 47.5337 8.70327V5.47152H48.8917V8.53478C48.8917 9.25086 49.3232 9.61927 49.9337 9.61927C50.597 9.61927 51.0917 9.2298 51.0917 8.3138V5.47152H52.4497V5.47119Z" fill="#7F7F7F"/>
<path d="M61.502 7.49238V10.7348H60.1441V7.58732C60.1441 6.96618 59.8281 6.5874 59.2598 6.5874C58.6597 6.5874 58.2806 6.98756 58.2806 7.77687V10.7348H56.9227V7.58732C56.9227 6.96618 56.6068 6.5874 56.0384 6.5874C55.4594 6.5874 55.0489 6.98756 55.0489 7.77687V10.7348H53.6909V5.47116H55.0489V6.02912C55.3437 5.58716 55.8385 5.32373 56.5121 5.32373C57.1647 5.32373 57.6491 5.59753 57.9437 6.08161C58.2699 5.60789 58.7965 5.32373 59.5122 5.32373C60.7124 5.32405 61.502 6.17655 61.502 7.49238Z" fill="#7F7F7F"/>
<path d="M68.0166 5.47108V10.7347H66.6586V10.1136C66.2795 10.5873 65.7112 10.8822 64.9426 10.8822C63.5426 10.8822 62.3845 9.67165 62.3845 8.10308C62.3845 6.53451 63.5426 5.32397 64.9426 5.32397C65.7112 5.32397 66.2795 5.61883 66.6586 6.09254V5.4714H68.0166V5.47108ZM66.6586 8.10308C66.6586 7.21883 66.0375 6.61875 65.1954 6.61875C64.3639 6.61875 63.7428 7.21883 63.7428 8.10308C63.7428 8.98732 64.3639 9.5874 65.1954 9.5874C66.0375 9.5874 66.6586 8.98732 66.6586 8.10308Z" fill="#7F7F7F"/>
<path d="M74.1628 7.50307V10.7348H72.8049V7.67156C72.8049 6.95581 72.3733 6.5874 71.7628 6.5874C71.0996 6.5874 70.6048 6.97687 70.6048 7.89287V10.7352H69.2468V5.47116H70.6048V6.06055C70.9207 5.58683 71.468 5.32373 72.1734 5.32373C73.2893 5.32405 74.1628 6.10299 74.1628 7.50307Z" fill="#7F7F7F"/>
<path d="M43.0746 17.0226H42.0944V19.5807H40.6418V12.2119H43.7148C45.0728 12.2119 46.1676 13.3068 46.1676 14.654C46.1676 15.5804 45.5886 16.4122 44.7465 16.8016L46.3783 19.5807H44.8097L43.0746 17.0226ZM42.0944 15.7489H43.7145C44.2618 15.7489 44.7144 15.2645 44.7144 14.654C44.7144 14.0436 44.2618 13.5699 43.7145 13.5699H42.0944V15.7489Z" fill="#7F7F7F"/>
<path d="M47.0085 12.8541C47.0085 12.4014 47.513 12.012 47.9657 12.012C48.4287 12.012 48.6824 12.4014 48.6824 12.8541C48.6824 13.3067 48.3033 13.6858 47.8403 13.6858C47.3876 13.6858 47.0085 13.3067 47.0085 12.8541ZM47.1667 14.3173H48.5246V19.581H47.1667V14.3173Z" fill="#7F7F7F"/>
<path d="M54.9138 14.3175V19.3285C54.9138 21.0548 53.5559 21.8341 52.1661 21.8341C51.0395 21.8341 50.1346 21.4025 49.6712 20.5497L50.8292 19.8864C51.0502 20.2969 51.3976 20.6232 52.2083 20.6232C53.0608 20.6232 53.5873 20.1602 53.5873 19.3285V18.7601C53.2189 19.2549 52.6502 19.5601 51.903 19.5601C50.408 19.5601 49.2817 18.3496 49.2817 16.8653C49.2817 15.3916 50.408 14.1704 51.903 14.1704C52.6505 14.1704 53.2189 14.4756 53.5873 14.9704V14.3178H54.9138V14.3175ZM53.5873 16.8649C53.5873 16.0332 52.9661 15.4334 52.1133 15.4334C51.2608 15.4334 50.6397 16.0335 50.6397 16.8649C50.6397 17.7071 51.2608 18.3071 52.1133 18.3071C52.9661 18.3071 53.5873 17.7071 53.5873 16.8649Z" fill="#7F7F7F"/>
<path d="M61.06 16.349V19.5807H59.7021V16.5175C59.7021 15.8017 59.2705 15.4333 58.66 15.4333C57.9968 15.4333 57.502 15.8228 57.502 16.7388V19.5811H56.144V12.2119H57.502V14.9068C57.8179 14.4331 58.3652 14.17 59.0706 14.17C60.1865 14.17 61.06 14.9489 61.06 16.349Z" fill="#7F7F7F"/>
<path d="M64.0381 15.6226V17.8123C64.0381 18.3806 64.4486 18.3913 65.2276 18.3492V19.5808C63.322 19.7914 62.6802 19.2335 62.6802 17.8123V15.6226H61.7642V14.3171H62.6802V13.254L64.0381 12.8435V14.3171H65.2276V15.6226H64.0381Z" fill="#7F7F7F"/>
<path d="M70.038 18.0439C70.038 19.1809 69.0485 19.7281 67.9219 19.7281C66.8691 19.7281 66.0902 19.2862 65.7114 18.4755L66.8905 17.8122C67.038 18.2438 67.396 18.4965 67.9222 18.4965C68.3538 18.4965 68.6486 18.3491 68.6486 18.0439C68.6486 17.2753 65.9327 17.6965 65.9327 15.8438C65.9327 14.77 66.8487 14.1699 67.9329 14.1699C68.7857 14.1699 69.5225 14.5594 69.9331 15.2858L68.775 15.9173C68.6169 15.5804 68.3224 15.3805 67.9329 15.3805C67.5959 15.3805 67.3224 15.5279 67.3224 15.812C67.3221 16.591 70.038 16.1069 70.038 18.0439Z" fill="#7F7F7F"/>
<path d="M42.0944 22.4478V24.1952H45.2086V25.585H42.0944V28.4272H40.6418V21.0581H45.2928V22.4475H42.0944V22.4478Z" fill="#7F7F7F"/>
<path d="M45.8076 25.7952C45.8076 24.2266 47.0392 23.0161 48.5867 23.0161C50.1342 23.0161 51.3765 24.2266 51.3765 25.7952C51.3765 27.3638 50.1342 28.5743 48.5867 28.5743C47.0392 28.5743 45.8076 27.3638 45.8076 25.7952ZM50.0186 25.7952C50.0186 24.9427 49.3974 24.3426 48.5867 24.3426C47.7867 24.3426 47.1656 24.9427 47.1656 25.7952C47.1656 26.648 47.7867 27.2478 48.5867 27.2478C49.3974 27.2481 50.0186 26.648 50.0186 25.7952Z" fill="#7F7F7F"/>
<path d="M56.9546 23.1636V28.4272H55.5966V27.8379C55.2807 28.3116 54.7334 28.5747 54.028 28.5747C52.9121 28.5747 52.0386 27.7957 52.0386 26.3957V23.1639H53.3965V26.2272C53.3965 26.9432 53.8281 27.3117 54.4386 27.3117C55.1018 27.3117 55.5966 26.9222 55.5966 26.0062V23.1639H56.9546V23.1636Z" fill="#7F7F7F"/>
<path d="M63.1116 25.1951V28.4269H61.7536V25.3636C61.7536 24.6479 61.322 24.2795 60.7116 24.2795C60.0483 24.2795 59.5535 24.6689 59.5535 25.5849V28.4272H58.1956V23.1635H59.5535V23.7529C59.8694 23.2792 60.4167 23.0161 61.1221 23.0161C62.238 23.0161 63.1116 23.7951 63.1116 25.1951Z" fill="#7F7F7F"/>
<path d="M69.6161 21.0581V28.4269H68.2582V27.8058C67.8791 28.2902 67.3211 28.5743 66.5529 28.5743C65.1421 28.5743 63.9844 27.3638 63.9844 25.7952C63.9844 24.2267 65.1424 23.0161 66.5529 23.0161C67.3214 23.0161 67.8794 23.3003 68.2582 23.7847V21.0581H69.6161ZM68.2582 25.7952C68.2582 24.911 67.637 24.3109 66.8053 24.3109C65.9632 24.3109 65.342 24.911 65.342 25.7952C65.342 26.6795 65.9632 27.2796 66.8053 27.2796C67.637 27.2799 68.2582 26.6798 68.2582 25.7952Z" fill="#7F7F7F"/>
<path d="M76.1528 23.1635V28.4271H74.7949V27.806C74.4158 28.2797 73.8474 28.5746 73.0789 28.5746C71.6788 28.5746 70.5208 27.364 70.5208 25.7955C70.5208 24.2269 71.6788 23.0164 73.0789 23.0164C73.8474 23.0164 74.4158 23.3112 74.7949 23.7849V23.1638H76.1528V23.1635ZM74.7949 25.7951C74.7949 24.9109 74.1737 24.3108 73.3316 24.3108C72.5002 24.3108 71.879 24.9109 71.879 25.7951C71.879 26.6794 72.5002 27.2795 73.3316 27.2795C74.1737 27.2798 74.7949 26.6797 74.7949 25.7951Z" fill="#7F7F7F"/>
<path d="M79.267 24.469V26.6588C79.267 27.2271 79.6776 27.2378 80.4565 27.1957V28.4272C78.551 28.6379 77.9091 28.0799 77.9091 26.6588V24.469H76.9934V23.1636H77.9091V22.1005L79.267 21.6899V23.1636H80.4565V24.469H79.267Z" fill="#7F7F7F"/>
<path d="M81.2559 21.7003C81.2559 21.2476 81.635 20.8582 82.0876 20.8582C82.5506 20.8582 82.9297 21.2476 82.9297 21.7003C82.9297 22.1529 82.5506 22.5317 82.0876 22.5317C81.635 22.532 81.2559 22.1529 81.2559 21.7003ZM81.4137 23.1635H82.7716V28.4272H81.4137V23.1635Z" fill="#7F7F7F"/>
<path d="M83.5291 25.7952C83.5291 24.2266 84.7606 23.0161 86.3082 23.0161C87.8557 23.0161 89.098 24.2266 89.098 25.7952C89.098 27.3638 87.8557 28.5743 86.3082 28.5743C84.7606 28.5743 83.5291 27.3638 83.5291 25.7952ZM87.74 25.7952C87.74 24.9427 87.1188 24.3426 86.3082 24.3426C85.5082 24.3426 84.887 24.9427 84.887 25.7952C84.887 26.648 85.5082 27.2478 86.3082 27.2478C87.1188 27.2481 87.74 26.648 87.74 25.7952Z" fill="#7F7F7F"/>
<path d="M94.7602 25.1951V28.4269H93.4023V25.3636C93.4023 24.6479 92.9707 24.2795 92.3602 24.2795C91.697 24.2795 91.2022 24.6689 91.2022 25.5849V28.4272H89.8442V23.1635H91.2022V23.7529C91.5181 23.2792 92.0654 23.0161 92.7708 23.0161C93.8867 23.0161 94.7602 23.7951 94.7602 25.1951Z" fill="#7F7F7F"/>
</svg>
