<svg width="40" height="40" viewBox="0 0 40 40" fill="none" xmlns="http://www.w3.org/2000/svg">
<path opacity="0.2" d="M33.75 15V32.5C33.75 32.8315 33.6183 33.1495 33.3839 33.3839C33.1495 33.6183 32.8315 33.75 32.5 33.75H7.5C7.16848 33.75 6.85054 33.6183 6.61612 33.3839C6.3817 33.1495 6.25 32.8315 6.25 32.5V15C6.25 14.6685 6.3817 14.3505 6.61612 14.1161C6.85054 13.8817 7.16848 13.75 7.5 13.75H32.5C32.8315 13.75 33.1495 13.8817 33.3839 14.1161C33.6183 14.3505 33.75 14.6685 33.75 15Z" fill="#C5A063"/>
<path d="M32.5 12.5H27.5V8.75C27.5 6.76088 26.7098 4.85322 25.3033 3.4467C23.8968 2.04018 21.9891 1.25 20 1.25C18.0109 1.25 16.1032 2.04018 14.6967 3.4467C13.2902 4.85322 12.5 6.76088 12.5 8.75V12.5H7.5C6.83696 12.5 6.20107 12.7634 5.73223 13.2322C5.26339 13.7011 5 14.337 5 15V32.5C5 33.163 5.26339 33.7989 5.73223 34.2678C6.20107 34.7366 6.83696 35 7.5 35H32.5C33.163 35 33.7989 34.7366 34.2678 34.2678C34.7366 33.7989 35 33.163 35 32.5V15C35 14.337 34.7366 13.7011 34.2678 13.2322C33.7989 12.7634 33.163 12.5 32.5 12.5ZM15 8.75C15 7.42392 15.5268 6.15215 16.4645 5.21447C17.4021 4.27678 18.6739 3.75 20 3.75C21.3261 3.75 22.5979 4.27678 23.5355 5.21447C24.4732 6.15215 25 7.42392 25 8.75V12.5H15V8.75ZM32.5 32.5H7.5V15H32.5V32.5ZM21.875 23.75C21.875 24.1208 21.765 24.4834 21.559 24.7917C21.353 25.1 21.0601 25.3404 20.7175 25.4823C20.3749 25.6242 19.9979 25.6613 19.6342 25.589C19.2705 25.5166 18.9364 25.338 18.6742 25.0758C18.412 24.8136 18.2334 24.4795 18.161 24.1158C18.0887 23.7521 18.1258 23.3751 18.2677 23.0325C18.4096 22.6899 18.65 22.397 18.9583 22.191C19.2666 21.985 19.6292 21.875 20 21.875C20.4973 21.875 20.9742 22.0725 21.3258 22.4242C21.6775 22.7758 21.875 23.2527 21.875 23.75Z" fill="#C5A063"/>
</svg>
