<svg id="icon" width="138" height="44" viewBox="0 0 138 44" fill="none" xmlns="http://www.w3.org/2000/svg">
<path fill-rule="evenodd" clip-rule="evenodd" d="M11.1626 43.2266H14.354V26.1772H11.1626V43.2266ZM22.8614 42.9708H25.7198V32.2138L37.7516 43.2266V26.433H34.9011V37.0062L22.8614 26.1772V42.9708ZM44.2769 38.8417C45.8327 40.0538 47.7001 40.7544 49.7021 40.7544C51.6521 40.7544 53.02 40.0831 53.02 38.6006C53.02 37.3086 52.1476 36.8024 50.6198 36.2363L48.1463 35.3772C45.866 34.5674 44.1317 33.3846 44.1317 30.666C44.1317 27.7583 46.7571 26.1772 49.8965 26.1772C51.8199 26.1772 53.5728 26.6608 54.9421 27.5172V30.4009C53.5182 29.3487 51.9598 28.6241 49.9578 28.6241C48.2342 28.6241 46.9462 29.2674 46.9462 30.6087C46.9462 31.8208 47.7547 32.3057 49.1786 32.7932L51.9345 33.7602C54.6051 34.6992 55.8305 36.1551 55.8305 38.55C55.8305 41.5629 53.1799 43.2266 49.7021 43.2266C47.4164 43.2266 45.473 42.5872 44.2769 41.78V38.8417ZM63.2763 43.2266H66.4664V26.1772H63.2763V43.2266ZM81.4325 40.6465C85.0288 40.6465 86.9509 38.3395 86.9509 34.6979C86.9509 31.0296 85.0275 28.7306 81.4325 28.7306H77.8761V40.6465H81.4325ZM74.9724 26.1772H81.539C86.5939 26.1772 89.8626 29.5072 89.8626 34.6979C89.8626 39.8926 86.5939 43.2266 81.539 43.2266H74.9724V26.1772ZM105.817 26.1772V28.7306H98.0956V32.8331H105.021V35.3572H98.0942V40.6465H105.817V43.2266H95.1812V26.1772H105.817ZM117.142 33.8974H120.308C122.182 33.8974 123.238 32.8691 123.238 31.288C123.238 29.707 122.182 28.6774 120.308 28.6774H117.142V33.8987V33.8974ZM117.142 36.3083V43.2266H114.324V26.1772H120.361C123.803 26.1772 126.03 27.9501 126.03 31.288C126.03 34.1425 124.794 35.7821 122.16 36.203L128.15 43.2266H124.946L119.146 36.3096H117.143L117.142 36.3083ZM10.0477 9.38101C11.2958 8.92414 12.2681 7.55353 12.2681 5.66878C12.2681 2.52798 10.0477 0.900303 6.49534 0.900303H0.528076V18.4331H7.04945C10.6018 18.4331 12.8222 16.6909 12.8222 13.4076C12.8222 11.5508 11.6568 9.92312 10.0477 9.38101ZM3.33056 8.26747V3.47102H6.4687C8.44003 3.47102 9.49363 4.18496 9.49363 5.84061C9.49363 7.49626 8.4387 8.26747 6.4687 8.26747H3.33056ZM3.33056 10.7236H6.9935C8.93819 10.7236 9.99179 11.6933 9.99179 13.293C9.99179 14.8634 8.93686 15.8637 6.99483 15.8637H3.33189V10.7223L3.33056 10.7236ZM25.8423 18.7182C29.9222 18.7182 32.6701 16.262 32.6701 11.4656V0.900303H29.7837V11.1219C29.7837 14.4918 28.3957 16.0635 25.8423 16.0635C23.2889 16.0635 21.9023 14.4918 21.9023 11.1219V0.900303H19.0159V11.4362C19.0159 16.262 21.7905 18.7182 25.8423 18.7182ZM39.4658 17.1757C40.6593 18.0335 42.6026 18.7182 44.8777 18.7182C48.3475 18.7182 50.9834 16.9466 50.9834 13.7499C50.9834 11.2085 49.7634 9.66605 47.0981 8.66707L44.3515 7.63878C42.9356 7.12597 42.1311 6.61182 42.1311 5.32647C42.1311 3.89858 43.4072 3.21395 45.1281 3.21395C47.126 3.21395 48.6805 3.98383 50.0963 5.0987V2.04181C48.7364 1.1294 46.9875 0.615259 45.0721 0.615259C41.9366 0.615259 39.3273 2.30021 39.3273 5.38374C39.3273 8.26747 41.0482 9.52353 43.3232 10.38L45.7941 11.2937C47.3205 11.8931 48.181 12.4366 48.181 13.8072C48.181 15.3776 46.821 16.0915 44.8777 16.0915C42.8797 16.0915 41.0202 15.3483 39.4658 14.0642V17.1757ZM61.297 0.900303H58.4119V18.4318H61.297V0.900303ZM69.5313 18.4105H72.3124V7.00476L84.0179 18.6822V0.873663H81.2447V12.0849L69.5313 0.603271V18.4105ZM102.054 0.904298V3.52963H94.5605V7.74933H101.28V10.3454H94.5605V15.7838H102.054V18.4371H91.7314V0.904298H102.054ZM108.774 17.1638C109.967 18.0215 111.91 18.7062 114.186 18.7062C117.654 18.7062 120.292 16.936 120.292 13.7379C120.292 11.1965 119.07 9.65539 116.406 8.65508L113.658 7.62812C112.243 7.11398 111.438 6.59984 111.438 5.31448C111.438 3.8866 112.714 3.20196 114.435 3.20196C116.433 3.20196 117.987 3.97318 119.403 5.08671V2.03115C118.043 1.11742 116.294 0.603271 114.379 0.603271C111.244 0.603271 108.634 2.28822 108.634 5.37175C108.634 8.25548 110.355 9.51154 112.63 10.368L115.101 11.2817C116.627 11.8811 117.488 12.4246 117.488 13.7952C117.488 15.3656 116.129 16.0795 114.185 16.0795C112.187 16.0795 110.327 15.3376 108.774 14.0523V17.1638ZM126.204 17.1638C127.398 18.0215 129.341 18.7062 131.616 18.7062C135.086 18.7062 137.722 16.936 137.722 13.7379C137.722 11.1965 136.501 9.65539 133.837 8.65508L131.089 7.62812C129.674 7.11398 128.868 6.59984 128.868 5.31448C128.868 3.8866 130.146 3.20196 131.865 3.20196C133.863 3.20196 135.419 3.97318 136.833 5.08671V2.03115C135.475 1.11742 133.726 0.603271 131.811 0.603271C128.674 0.603271 126.066 2.28822 126.066 5.37175C126.066 8.25548 127.787 9.51154 130.062 10.368L132.533 11.2817C134.059 11.8811 134.919 12.4246 134.919 13.7952C134.919 15.3656 133.559 16.0795 131.616 16.0795C129.618 16.0795 127.759 15.3376 126.204 14.0523V17.1638Z" fill="#535353"/>
</svg>
