<svg id="icon" width="131" height="31" viewBox="0 0 131 31" fill="none" xmlns="http://www.w3.org/2000/svg">
<path d="M24.722 0.889832C22.2431 0.900153 19.7771 2.20441 18.5463 4.80186L17.9778 6.0008V15.9075V25.8142L18.5463 27.0132C19.4288 28.8754 20.7946 30.051 22.8418 30.7001C24.3089 31.1652 26.6475 30.9201 28.1392 30.1484C29.1069 29.6479 30.4762 28.1577 31.0047 27.0301L31.4889 25.9944V15.9075V5.82068L30.9597 4.7512C29.6893 2.16417 27.201 0.879515 24.722 0.889832ZM24.8346 5.79816C24.9243 5.7987 25.014 5.80758 25.0992 5.82631C25.3851 5.88908 25.8618 6.22046 26.1632 6.56368L26.7149 7.18848V15.8625V24.5365L26.3096 25.1275C26.0867 25.4541 25.668 25.8037 25.3807 25.9043C25.0935 26.0049 24.7692 26.0859 24.6601 26.0844C24.226 26.0786 23.5521 25.5985 23.1626 25.0206L22.7517 24.4127V15.93C22.7523 7.83305 22.7651 7.41798 23.1007 6.86764C23.4976 6.21674 24.2071 5.79394 24.8346 5.79816Z" fill="#535353"/>
<path d="M81.5187 30.6061C79.4304 29.8316 78.0587 28.4976 77.2682 26.4725C76.99 25.7598 76.9621 24.5563 76.9669 13.5036L76.9723 1.32032L79.4055 1.27021L81.8387 1.22009L81.8413 12.8881C81.8434 21.9049 81.8955 24.6585 82.0708 25.0065C82.1956 25.2542 82.5843 25.6113 82.9347 25.8001C83.7219 26.2244 84.3817 26.094 85.1044 25.3714L85.6218 24.8541V13.0371V1.22009L88.0568 1.27021L90.4917 1.32032L90.4912 13.5104C90.4907 25.4227 90.4821 25.7234 90.1152 26.7038C89.5853 28.1201 88.2333 29.5418 86.7306 30.2631C85.1639 31.015 83.0046 31.1571 81.5186 30.6061H81.5187Z" fill="#535353"/>
<path d="M0.952484 15.9099V1.22986H6.98744H13.0224V3.75159V6.27331H9.50951H5.99663V9.70495V13.1366L8.20344 13.1059L10.4103 13.0753L10.4604 15.5283L10.5105 17.9813H8.25356H5.99663V24.2856V30.59H3.47456H0.952484V15.9099Z" fill="#535353"/>
<path d="M38.2428 15.9102V1.23035H41.9881C46.0663 1.23035 47.1826 1.39922 48.602 2.23095C49.6728 2.85836 50.7919 4.11978 51.3612 5.34102C51.8218 6.32901 51.8401 6.49358 51.8987 10.1823C51.9476 13.2521 51.9027 14.2225 51.6699 15.1312C51.3337 16.4431 50.7211 17.5612 49.8747 18.4075L49.2762 19.0058L50.8553 24.4127C51.7238 27.3864 52.4894 29.9929 52.5566 30.2047C52.6777 30.5861 52.6531 30.59 50.0792 30.59H47.4796L46.7229 27.663C45.969 24.7462 44.0439 17.4388 43.8806 16.8737C43.8188 16.6596 43.9446 16.5435 44.3304 16.4587C45.045 16.3018 46.3362 15.1752 46.6431 14.4409C46.8212 14.0147 46.8899 12.9427 46.8899 10.5885V7.32673L46.3633 6.80022C45.874 6.31095 45.7402 6.27372 44.4718 6.27372H43.1068V18.4318V30.59H40.6748H38.2428V15.9102Z" fill="#535353"/>
<path d="M61.8402 30.4549C61.8391 30.3806 61.8189 24.9297 61.7951 18.3418L61.752 6.36378L59.5452 6.3132L57.3383 6.26263V3.74649V1.23035H64.1839H71.0295V3.75203V6.27372H68.8678H66.706V18.4318V30.59H64.274C62.9364 30.59 61.8412 30.5292 61.8402 30.4549Z" fill="#535353"/>
<path d="M96.9712 15.9101V1.23026H99.4561H101.941L102.133 1.90572C102.238 2.27721 103.059 4.89122 103.956 7.71461C104.853 10.538 105.844 13.6789 106.157 14.6943C106.471 15.7097 106.804 16.5405 106.897 16.5405C107.001 16.5405 107.062 13.584 107.055 8.93043L107.044 1.32032L109.484 1.27021L111.924 1.22009V15.905V30.59H109.169H106.414L105.898 28.9238C105.614 28.0075 105.114 26.4182 104.787 25.3922C104.46 24.3661 103.73 22.0358 103.163 20.2137C102.597 18.3916 102.067 16.9008 101.985 16.9008C101.902 16.9008 101.835 19.9808 101.835 23.7454V30.59H99.4032H96.9712V15.9101H96.9712Z" fill="#535353"/>
<path d="M118.409 15.9102V1.23035H124.444H130.479V3.75203V6.27372H126.872H123.265L123.314 9.65097L123.363 13.0282H125.66H127.957L127.957 15.5049L127.957 17.9815H125.615H123.273V21.7641V25.5466H126.876H130.479V28.0683V30.59H124.444H118.409V15.9102H118.409Z" fill="#535353"/>
</svg>

