<svg id="icon" width="162" height="46" viewBox="0 0 162 46" fill="none" xmlns="http://www.w3.org/2000/svg">
<path d="M119.942 34.8701C114.403 34.8701 110.961 31.6594 110.961 26.4912C110.961 21.1191 114.137 17.7821 119.25 17.7821L119.682 17.7791C120.321 17.7791 121.205 17.7989 122.411 17.9525V11.4717H126.028V34.2861C126.028 34.2861 122.593 34.8701 119.942 34.8701ZM119.91 20.6279C116.411 20.6279 114.709 22.5169 114.709 26.4014C114.709 29.8875 116.76 32.0533 120.061 32.0533C120.695 32.0533 121.422 32.0138 122.411 31.9271V20.8575C121.421 20.7009 120.627 20.6279 119.91 20.6279Z" fill="#535353"/>
<path d="M70.4487 34.3496L60.6872 17.3118L60.6841 34.3496H57.2833V12.7839H62.0439L71.8054 29.6681L71.8024 12.7839H75.2458V34.3496H70.4487Z" fill="#535353"/>
<path d="M101.539 34.6797C99.896 34.6797 98.1803 34.4972 96.1392 34.1032L95.9232 34.0622V31.0476L96.2456 31.1191C98.0434 31.5009 99.5963 31.8309 101.148 31.8309C102.406 31.8309 105.329 31.6317 105.329 29.7852C105.329 28.2354 103.309 27.849 101.685 27.5372L101.583 27.5175C101.282 27.4566 100.996 27.4019 100.752 27.3395C98.3719 26.7205 95.8334 25.7942 95.8334 22.6047C95.8334 19.4928 98.2959 17.7087 102.59 17.7087C104.651 17.7087 106.146 17.9323 107.347 18.1118L107.934 18.1985V21.1187L107.621 21.0655C106.261 20.8146 104.667 20.5575 103.131 20.5575C101.429 20.5575 99.4016 20.8754 99.4016 22.3933C99.4016 23.6512 101.059 24.0116 102.977 24.4284C105.659 25.0109 108.985 25.7379 108.985 29.3958C108.985 32.7541 106.27 34.6797 101.539 34.6797Z" fill="#535353"/>
<path d="M136.172 34.6797C132.429 34.6797 128.965 34.0226 128.965 29.2468C128.965 24.0512 134.323 24.0512 137.523 24.0512C137.844 24.0512 139.348 24.1196 139.812 24.1379C139.807 21.2237 139.768 20.5286 135.54 20.5286C133.864 20.5286 132.002 20.8617 130.359 21.1537L130.046 21.2115V18.3308L130.26 18.2882C132.163 17.8989 133.999 17.7087 135.871 17.7087C139.969 17.7087 143.44 18.124 143.44 23.2055V34.2918L143.192 34.3177C140.352 34.6371 138.098 34.6797 136.172 34.6797ZM137.432 26.6201C134.346 26.6201 132.434 27.0749 132.434 29.335C132.434 31.9511 134.875 32.1701 137.163 32.1701C138.02 32.1701 139.558 32.0606 140.028 32.0256V26.7083C139.365 26.6824 137.642 26.6201 137.432 26.6201Z" fill="#535353"/>
<path d="M85.4676 34.6797C81.7245 34.6797 78.2613 34.0226 78.2613 29.2468C78.2613 24.0512 83.6181 24.0512 86.8182 24.0512C87.1391 24.0512 88.6433 24.1196 89.1072 24.1379C89.1026 21.2237 89.0631 20.5286 84.8349 20.5286C83.1588 20.5286 81.2986 20.8617 79.6545 21.1537L79.3412 21.2115V18.3308L79.5556 18.2882C81.4599 17.8989 83.2941 17.7087 85.1664 17.7087C89.2639 17.7087 92.7362 18.124 92.7362 23.2055V34.2918L92.4868 34.3177C89.6487 34.6371 87.3931 34.6797 85.4676 34.6797ZM86.7284 26.6201C83.6424 26.6201 81.7306 27.0749 81.7306 29.335C81.7306 31.9511 84.1702 32.1701 86.4592 32.1701C87.3155 32.1701 88.8532 32.0606 89.3232 32.0256V26.7083C88.6601 26.6824 86.9368 26.6201 86.7284 26.6201Z" fill="#535353"/>
<path d="M157.831 41.6741V34.6016C156.419 34.8008 155.668 34.8008 155.064 34.8008C153.634 34.8008 152.043 34.489 150.811 33.9673C148.058 32.8235 146.414 29.9124 146.414 26.18C146.414 24.3137 146.867 20.9067 149.906 19.0725C151.427 18.1599 153.23 17.7705 155.935 17.7705C156.904 17.7705 158.214 17.8466 159.478 17.9196L161.528 18.0245V40.036L157.831 41.6741ZM155.665 20.6178C151.995 20.6178 150.131 22.4886 150.131 26.18C150.131 30.9269 152.912 31.9231 155.245 31.9231C155.811 31.9231 156.451 31.9231 157.864 31.7452V20.7212C156.757 20.6451 156.249 20.6178 155.665 20.6178Z" fill="#535353"/>
<path d="M41.1385 0L29.1852 32.8375C28.8917 33.6482 28.151 34.2399 27.2612 34.3311V34.3494H39.8974C40.8875 34.3494 41.7347 33.7197 42.0511 32.8375L54.0059 0H41.1385Z" fill="#535353"/>
<path d="M26.2346 33.8477C26.9646 33.8477 27.608 33.4857 28.0004 32.9351C28.043 32.8773 28.186 32.6765 28.2848 32.4012L32.6713 20.3522L30.1069 13.3162C29.7784 12.5344 29.0058 11.9854 28.1053 11.9854C27.3768 11.9854 26.7319 12.3458 26.3395 12.8979C26.2969 12.9542 26.1266 13.2112 26.0551 13.4318L21.6717 25.4763L24.2452 32.5411C24.5798 33.3092 25.3433 33.8477 26.2346 33.8477Z" fill="#535353"/>
<path d="M27.171 11.4817H14.398C13.4063 11.4817 12.5622 12.1099 12.2428 12.992L0.289551 45.8298H13.1584L25.1101 12.992C25.4189 12.1388 26.2219 11.5288 27.171 11.4893V11.4817Z" fill="#535353"/>
</svg>
