<svg id="icon" width="170" height="35" viewBox="0 0 170 35" fill="none" xmlns="http://www.w3.org/2000/svg">
<path fill-rule="evenodd" clip-rule="evenodd" d="M4.92384 15.46H9.19035C12.7889 15.46 14.4819 16.376 14.4819 18.9877C14.4819 22.2673 11.3059 22.6544 9.01451 22.6544H4.92384V15.46ZM0.47876 26.4657H9.47115C14.197 26.4657 18.9243 24.7741 18.9243 19.3407C18.9243 16.1333 16.667 13.662 13.5264 13.3103V13.2381C16.1026 12.4639 17.8665 10.595 17.8665 7.77205C17.8679 3.22064 13.9871 1.49359 10.214 1.49359H0.47876V26.4657ZM4.92248 5.30347H8.59059C11.9425 5.30347 13.4228 6.36124 13.4228 8.51358C13.4228 10.3824 11.9425 11.6528 8.97907 11.6528H4.92384V5.3021L4.92248 5.30347ZM21.8277 26.4657H26.0601V0.900635H21.8277V26.4657ZM28.8899 17.9994C28.8899 23.3264 32.9806 26.8882 38.0963 26.8882C43.2093 26.8882 47.3 23.3264 47.3 17.9994C47.3 12.6738 43.2093 9.11198 38.0963 9.11198C32.9806 9.11198 28.8899 12.6738 28.8899 17.9994ZM33.1224 17.9994C33.1224 15.355 34.9898 12.9205 38.0963 12.9205C41.1987 12.9205 43.0676 15.3536 43.0676 17.9994C43.0676 20.6452 41.2001 23.0784 38.0963 23.0784C34.9912 23.0784 33.121 20.6452 33.121 17.9994H33.1224ZM49.2138 17.9994C49.2138 23.3264 53.3058 26.8882 58.4202 26.8882C63.5332 26.8882 67.6252 23.3264 67.6252 17.9994C67.6252 12.6738 63.5332 9.11198 58.4202 9.11198C53.3058 9.11198 49.2138 12.6738 49.2138 17.9994ZM53.4462 17.9994C53.4462 15.355 55.3164 12.9205 58.4202 12.9205C61.524 12.9205 63.3928 15.3536 63.3928 17.9994C63.3928 20.6452 61.524 23.0784 58.4202 23.0784C55.3164 23.0784 53.4449 20.6452 53.4449 17.9994H53.4462ZM70.2083 9.53454H74.2295V12.179H74.299C75.0405 10.5937 76.6626 9.11198 79.4842 9.11198C82.0946 9.11198 83.8939 10.1343 84.7758 12.2512C86.0094 10.0975 87.8073 9.11062 90.3468 9.11062C94.8628 9.11062 96.4494 12.3207 96.4494 16.376V26.4643H92.217V16.8721C92.217 14.7552 91.5818 12.9205 89.0778 12.9205C86.4333 12.9205 85.4451 15.1069 85.4451 17.2933V26.4643H81.2113V16.3773C81.2113 14.2959 80.3648 12.9205 78.3188 12.9205C75.5326 12.9205 74.4407 14.9665 74.4407 17.2238V26.4657H70.2069V9.53318L70.2083 9.53454ZM99.8803 26.4657H103.901V23.9248H103.971C105.206 25.9695 107.428 26.8882 109.791 26.8882C115.011 26.8882 118.15 23.0088 118.15 17.9994C118.15 12.9927 114.799 9.11198 109.967 9.11198C106.793 9.11198 105.1 10.5937 104.219 11.6855H104.113V0.901998H99.8803V26.4643V26.4657ZM113.918 17.9994C113.918 20.6452 112.047 23.0784 108.945 23.0784C105.841 23.0784 103.971 20.6452 103.971 17.9994C103.971 15.355 105.841 12.9205 108.945 12.9205C112.047 12.9205 113.918 15.3536 113.918 17.9994ZM137.205 19.4798V18.317C137.205 12.4284 133.996 9.11062 129.269 9.11062C124.154 9.11062 120.062 12.6738 120.062 17.9994C120.062 23.3264 124.154 26.8882 129.269 26.8882C131.949 26.8882 134.453 25.9341 136.428 23.5009L133.395 21.2109C132.339 22.5154 130.962 23.5009 128.846 23.5009C126.483 23.5009 124.578 21.9879 124.295 19.4798H137.205ZM124.296 16.3078C124.614 13.8733 126.165 12.2867 128.669 12.2867C131.314 12.2867 132.937 13.8379 132.971 16.3078H124.295H124.296ZM139.965 9.53454H144.196V12.2144H144.268C145.184 10.2761 147.053 9.11062 149.276 9.11062C149.805 9.11062 150.299 9.2183 150.792 9.3587V13.4507C150.086 13.2735 149.416 13.1331 148.748 13.1331C144.762 13.1331 144.195 16.4837 144.195 17.3997V26.4643H139.965V9.53591V9.53454ZM165.268 9.53454V12.0754H165.198C163.964 10.028 161.742 9.11062 159.377 9.11062C154.156 9.11062 151.02 12.9927 151.02 17.9994C151.02 22.7962 154.37 26.677 159.448 26.677C161.565 26.677 163.751 25.8659 164.986 24.2084H165.056V25.4433C165.056 28.7939 163.787 31.1193 159.696 31.1193C157.332 31.1193 155.57 30.2388 153.876 28.6862L151.336 32.143C153.735 34.2599 156.592 34.9292 159.731 34.9292C166.326 34.9292 169.29 31.0498 169.29 24.9485V9.53454H165.268ZM160.26 12.9205C163.329 12.9205 165.268 14.9665 165.268 17.8931C165.268 20.7175 163.364 22.8684 160.225 22.8684C157.368 22.8684 155.252 20.6466 155.252 17.9654C155.252 14.9665 157.297 12.9205 160.26 12.9205Z" fill="#535353"/>
</svg>
