<svg id="icon" width="115" height="31" viewBox="0 0 115 31" fill="none" xmlns="http://www.w3.org/2000/svg">
<path d="M55.6439 9.02539C54.6813 9.02539 54.1534 9.11855 53.3771 9.49117C51.9487 10.1432 50.893 11.199 49.9615 12.9068L49.6509 13.4347L49.682 12.4721C49.713 11.9442 49.7441 10.9816 49.7751 10.2985L49.8062 9.0875H49.5888C49.3404 9.0875 41.1428 10.7332 40.8944 10.8264C40.7391 10.8885 40.7081 10.9506 40.7081 11.3543C40.7081 11.7579 40.7391 11.82 40.8944 11.8511C40.9876 11.8821 41.3602 11.9442 41.7328 12.0063C42.447 12.1306 42.6643 12.2548 42.9749 12.6584C43.5338 13.3726 43.6269 14.6768 43.6269 20.1108C43.6269 24.5512 43.5338 26.7869 43.3164 27.4701C43.068 28.3084 42.6022 28.7432 41.7949 28.8984C41.5465 28.9605 41.2049 29.0226 41.0497 29.0537L40.7702 29.1158L40.7391 29.6747C40.7081 30.0784 40.7391 30.2647 40.8323 30.3268C40.8944 30.3579 43.689 30.3889 47.0426 30.3889L53.1598 30.3579L53.1908 29.7058C53.1908 29.3642 53.1908 29.0537 53.1598 29.0537C52.694 29.0537 51.2346 28.8674 50.9862 28.7432C50.303 28.4637 49.9615 27.8427 49.8062 26.5696C49.6509 25.1101 49.5267 21.415 49.5888 18.434C49.6509 15.391 49.6509 15.391 49.8372 15.1736C50.272 14.7078 51.3898 14.3352 52.4145 14.3352C53.2219 14.3352 54.0603 14.5526 54.9297 14.9563C55.3644 15.1736 55.737 15.2978 55.7991 15.2978C55.9233 15.2668 57.9106 9.95694 57.9106 9.70853C57.9106 9.39801 56.7617 9.02539 55.6439 9.02539Z" fill="#535353"/>
<path d="M40.7389 18.2478C40.3042 14.5838 38.7516 11.9133 36.1743 10.3918C33.3176 8.71504 29.0014 8.62189 25.9273 10.1745C23.6916 11.2923 21.8906 13.4349 21.0833 15.919C20.2449 18.4652 20.2449 21.8188 21.0833 24.396C21.6112 26.0728 22.3254 27.2838 23.4432 28.3706C24.7784 29.7058 26.5173 30.5442 28.5357 30.8237C29.2498 30.9168 31.5166 30.9168 32.2618 30.8237C32.6034 30.7616 33.2244 30.6374 33.597 30.5442C37.2301 29.4885 39.7142 26.6938 40.5526 22.7193C40.7699 21.7256 40.8631 19.3657 40.7389 18.2478ZM31.5477 29.2401C29.2809 29.9232 27.6662 27.7496 27.0452 23.2471C26.8278 21.7877 26.8589 17.8131 27.0452 16.1674C27.4799 12.5344 28.5978 10.7023 30.3677 10.7023C31.175 10.7023 31.6098 10.8886 32.2308 11.5097C33.7213 13.0001 34.4044 15.8569 34.4044 20.3283C34.4044 23.8992 34.0318 26.1349 33.2555 27.6564C32.8518 28.3706 32.1376 29.0538 31.5477 29.2401Z" fill="#535353"/>
<path d="M10.9301 3.65354H13.5385C16.5194 3.65354 17.0162 3.71564 18.072 4.24352C19.5935 4.98876 20.7114 6.47924 21.705 9.08758C22.1087 10.1433 22.1087 10.1433 22.9781 9.86387L23.5681 9.67756L23.506 5.8582C23.475 3.74669 23.4129 1.88359 23.4129 1.72833L23.3508 1.38677L11.9548 1.35571C5.68243 1.35571 0.434722 1.35571 0.279464 1.38677L0 1.44887L0.0310511 2.132L0.0621021 2.81514L0.931546 2.9083C2.0494 3.0325 2.73253 3.37407 3.1362 3.933C4.0367 5.23717 4.19196 7.03817 4.19196 15.5153C4.19196 24.5513 4.00565 26.756 3.1362 27.8738C2.70148 28.4638 2.32886 28.6501 1.30416 28.8364C-0.0310525 29.0848 0.0310511 29.0538 0.0310511 29.7369C0.0310511 30.1096 0.0621035 30.3269 0.124207 30.358C0.279464 30.4201 14.8426 30.4201 14.9979 30.358C15.1842 30.2959 15.1842 29.2091 14.9979 29.1159C14.9047 29.0848 14.439 28.9917 13.9111 28.8985C13.3832 28.8054 12.8243 28.6812 12.638 28.6191C11.6754 28.2154 11.1475 27.0665 10.9612 24.986C10.8059 23.4955 10.7128 20.7319 10.7128 18.7136V16.8505L11.6133 16.8815C13.5074 16.9436 14.47 17.0368 14.8737 17.2231C15.7431 17.5957 16.4263 18.6515 16.7678 20.142L16.9541 20.9183L17.6373 20.9493L18.3204 20.9804V11.0438L17.6373 11.0749L16.9541 11.1059L16.7678 11.8822C16.3952 13.4038 15.7742 14.3353 14.8426 14.77C14.47 14.9563 14.1906 14.9874 13.3211 15.0495C12.7311 15.0805 11.8927 15.1116 11.4891 15.1116H10.7128V12.6585C10.7128 10.2054 10.837 4.95771 10.9301 4.15036V3.65354Z" fill="#535353"/>
<path d="M114.363 21.1666C113.679 19.7693 112.375 18.8377 109.705 17.7199C107.531 16.8194 106.413 16.1673 105.761 15.4532C105.202 14.8632 105.047 14.3664 105.109 13.4969C105.171 12.6896 105.358 12.1928 105.886 11.6339C106.538 10.9197 107.469 10.6713 108.556 10.9197C110.326 11.2923 111.475 12.5343 112.468 15.1426C112.81 16.0742 112.872 16.1052 113.493 15.8568L113.897 15.7016V14.6148C113.897 14.0248 113.866 12.7828 113.835 11.8512L113.773 10.1745L113.462 10.0502C111.816 9.36712 108.711 8.9324 106.693 9.11871C104.395 9.33607 102.687 10.0502 101.383 11.4165C100.079 12.7517 99.4889 14.3353 99.6131 16.1984C99.7063 17.7509 100.141 18.8377 101.104 19.8314C101.973 20.7319 102.718 21.1666 104.861 22.005C108.276 23.3402 109.208 24.1475 109.177 25.7932C109.177 27.1905 108.432 28.2152 107.097 28.681C106.6 28.8362 105.389 28.8362 104.737 28.681C103.029 28.2463 101.725 26.7558 100.607 24.0233L100.327 23.3091L99.9857 23.3402C99.7994 23.3402 99.551 23.4023 99.4268 23.4644L99.2094 23.5886L99.2405 24.7996C99.2405 25.4516 99.2715 26.8489 99.3026 27.8736L99.3647 29.7678L99.7373 29.923C100.514 30.2646 102.874 30.7614 104.333 30.9167C104.519 30.9477 105.513 30.9477 106.569 30.9167C108.37 30.8856 108.525 30.8856 109.425 30.6372C112.127 29.923 113.866 28.4326 114.642 26.1658C114.89 25.4516 114.922 25.2653 114.953 24.2096C114.922 22.7812 114.797 22.0671 114.363 21.1666Z" fill="#535353"/>
<path d="M93.5273 9.86389C91.2605 8.71499 87.7517 8.80814 85.2055 10.0502C82.7834 11.2301 81.1067 13.2174 80.1751 16.0121C79.6783 17.4715 79.523 18.6204 79.5851 20.5145C79.6162 21.6944 79.6783 22.3155 79.8025 22.8744C80.7651 27.1595 83.6839 30.0473 87.7828 30.7925C88.6832 30.9478 90.7326 30.9478 91.6331 30.7925C92.9373 30.5751 94.4278 29.9852 95.3904 29.3331C96.5393 28.5568 97.7192 27.3768 97.7192 27.0042C97.7192 26.7869 97.3156 26.259 97.1603 26.259C97.0982 26.259 96.7566 26.4143 96.4461 26.6316C95.3283 27.3768 94.2415 27.6563 92.7199 27.6563C90.6395 27.6563 89.3353 27.1284 88.0001 25.7932C87.4101 25.2032 87.1617 24.8927 86.8822 24.3028C86.2302 23.0297 85.8575 21.5392 85.7954 19.8624L85.7644 19.1482L91.8815 19.1172L97.9987 19.0861L98.0298 18.6825C98.0298 18.4651 98.0298 17.8751 97.9676 17.3473C97.595 13.7143 96.0735 11.168 93.5273 9.86389ZM87.3791 17.4094L85.8265 17.4404V17.0988C85.8265 16.9125 85.8886 16.4157 85.9507 16.0121C86.4786 12.6896 87.7206 10.7023 89.2732 10.7023C90.7016 10.7023 91.571 12.6585 91.7573 16.2605L91.8194 17.2852L90.3911 17.3473C89.5837 17.3473 88.2175 17.3783 87.3791 17.4094Z" fill="#535353"/>
<path d="M71.3875 9.49115C70.8907 9.398 70.456 9.36695 69.5244 9.398C68.096 9.4601 67.1334 9.64641 66.0466 10.1432C65.7051 10.2985 65.3946 10.4537 65.3635 10.4537C65.3325 10.4537 65.3325 8.3112 65.3635 5.67182C65.3946 1.94565 65.3946 0.889893 65.3014 0.889893C65.0219 0.889893 56.607 2.50457 56.5138 2.56668C56.4517 2.62878 56.4207 2.81508 56.4207 3.0635C56.4517 3.52927 56.3896 3.49822 57.4143 3.71558C57.7248 3.77768 58.0974 3.93294 58.2216 4.02609C58.5632 4.27451 58.8427 4.80238 59.06 5.54761C59.2153 6.13759 59.2463 6.57231 59.3085 10.609C59.3706 14.7389 59.3706 18.9929 59.2463 26.7558L59.1842 29.9851L59.7742 30.1093C60.6437 30.2956 63.1588 30.7304 63.9662 30.8235C65.1772 30.9477 67.9718 30.9167 68.8723 30.7925C72.7538 30.2025 75.6726 27.9668 77.0389 24.5201C77.4115 23.6196 77.7531 22.1912 77.8773 21.1665C78.0325 19.9555 77.9394 17.5024 77.722 16.5088C76.9147 12.7516 74.5548 10.1432 71.3875 9.49115ZM65.4877 28.9604C65.3946 28.681 65.2703 18.9929 65.3014 15.1425L65.3325 12.1305L65.8914 11.9753C66.264 11.8821 66.6987 11.82 67.1955 11.82C67.9097 11.82 67.9718 11.8511 68.5618 12.1305C69.9902 12.8447 70.9528 14.5836 71.4186 17.223C71.5738 18.2166 71.6049 20.887 71.4496 22.067C71.077 24.9548 70.1454 27.2836 68.8723 28.4015C68.3755 28.8362 67.9097 29.0846 67.3197 29.2088C66.885 29.302 66.7608 29.302 65.9535 29.2399C65.643 29.1778 65.5809 29.1467 65.4877 28.9604Z" fill="#535353"/>
</svg>
