<svg id="icon" width="41" height="40" viewBox="0 0 41 40" fill="none" xmlns="http://www.w3.org/2000/svg">
<path opacity="0.2" d="M38.1665 20.625C38.1665 23.7313 32.5696 26.25 25.6665 26.25C22.604 26.25 19.7978 25.7547 17.6243 24.9312C23.5978 24.5078 28.1665 22.1875 28.1665 19.375V15.1125C33.8728 15.6344 38.1665 17.9031 38.1665 20.625ZM28.1665 13.125C28.1665 10.0188 22.5696 7.5 15.6665 7.5C8.76338 7.5 3.1665 10.0188 3.1665 13.125C3.1665 16.2312 8.76338 18.75 15.6665 18.75C22.5696 18.75 28.1665 16.2312 28.1665 13.125Z" fill="#C5A063"/>
<path d="M29.4165 13.9953V13.125C29.4165 9.20625 23.5056 6.25 15.6665 6.25C7.82744 6.25 1.9165 9.20625 1.9165 13.125V19.375C1.9165 22.6391 6.01807 25.2328 11.9165 26.0094V26.875C11.9165 30.7938 17.8274 33.75 25.6665 33.75C33.5056 33.75 39.4165 30.7938 39.4165 26.875V20.625C39.4165 17.3906 35.4446 14.7937 29.4165 13.9953ZM36.9165 20.625C36.9165 22.6906 32.1056 25 25.6665 25C25.0837 25 24.5056 24.9797 23.9353 24.9422C27.3056 23.7141 29.4165 21.7188 29.4165 19.375V16.5219C34.0837 17.2172 36.9165 19.1047 36.9165 20.625ZM11.9165 23.4766V19.7594C13.1599 19.9214 14.4126 20.0018 15.6665 20C16.9204 20.0018 18.1731 19.9214 19.4165 19.7594V23.4766C18.1749 23.66 16.9215 23.7514 15.6665 23.75C14.4115 23.7514 13.1581 23.66 11.9165 23.4766ZM26.9165 17.1766V19.375C26.9165 20.6859 24.9774 22.0937 21.9165 22.9484V19.2969C23.9337 18.8078 25.6415 18.0797 26.9165 17.1766ZM15.6665 8.75C22.1056 8.75 26.9165 11.0594 26.9165 13.125C26.9165 15.1906 22.1056 17.5 15.6665 17.5C9.22744 17.5 4.4165 15.1906 4.4165 13.125C4.4165 11.0594 9.22744 8.75 15.6665 8.75ZM4.4165 19.375V17.1766C5.6915 18.0797 7.39932 18.8078 9.4165 19.2969V22.9484C6.35557 22.0937 4.4165 20.6859 4.4165 19.375ZM14.4165 26.875V26.2234C14.8274 26.2391 15.2431 26.25 15.6665 26.25C16.2728 26.25 16.8649 26.2297 17.4462 26.1953C18.0919 26.4265 18.7496 26.6226 19.4165 26.7828V30.4484C16.3556 29.5938 14.4165 28.1859 14.4165 26.875ZM21.9165 30.9766V27.25C23.1595 27.4171 24.4123 27.5006 25.6665 27.5C26.9204 27.5018 28.1731 27.4214 29.4165 27.2594V30.9766C26.9298 31.3411 24.4032 31.3411 21.9165 30.9766ZM31.9165 30.4484V26.7969C33.9337 26.3078 35.6415 25.5797 36.9165 24.6766V26.875C36.9165 28.1859 34.9774 29.5938 31.9165 30.4484Z" fill="#C5A063"/>
</svg>
